<svg width="32" height="32" viewBox="0 0 32 32" fill="none" xmlns="http://www.w3.org/2000/svg">
<path d="M28.5387 12.6132C28.8839 12.6132 29.1637 12.3333 29.1637 11.9882C29.1637 11.643 28.8839 11.3632 28.5387 11.3632C28.1935 11.3632 27.9137 11.643 27.9137 11.9882C27.9137 12.3333 28.1935 12.6132 28.5387 12.6132Z" fill="#2BA860"/>
<path d="M12.0107 16.2419C12.3559 16.2419 12.6357 15.9621 12.6357 15.6169C12.6357 15.2718 12.3559 14.9919 12.0107 14.9919C11.6656 14.9919 11.3857 15.2718 11.3857 15.6169C11.3857 15.9621 11.6656 16.2419 12.0107 16.2419Z" fill="#2BA860"/>
<path d="M30.1381 4.9008H25.2777C24.9804 3.19086 23.4867 1.88623 21.693 1.88623C19.8993 1.88623 18.4055 3.19086 18.1082 4.9008H13.2478C12.2211 4.9008 11.3858 5.73611 11.3858 6.7628V9.91031H7.90752C8.2517 9.42637 8.45496 8.83556 8.45496 8.1978C8.45496 6.56424 7.12595 5.23524 5.49245 5.23524C3.85882 5.23524 2.52988 6.56424 2.52988 8.1978C2.52988 9.04068 2.88432 9.80187 3.45126 10.3419C1.42513 11.1764 0 13.1306 0 15.4026V20.0575C0 21.4726 1.10044 22.6411 2.50957 22.7909V28.8636H0.946002C0.600876 28.8636 0.321001 29.1435 0.321001 29.4886C0.321001 29.8337 0.600876 30.1136 0.946002 30.1136H18.1579C18.1594 30.1136 18.161 30.1138 18.1625 30.1138C18.164 30.1138 18.1656 30.1136 18.1671 30.1136H25.6348C25.6364 30.1136 25.6379 30.1138 25.6394 30.1138C25.6409 30.1138 25.6425 30.1136 25.644 30.1136H30.7853C31.1304 30.1136 31.4103 29.8337 31.4103 29.4886C31.4103 29.1435 31.1304 28.8636 30.7853 28.8636H26.089L24.298 23.5275H30.138C31.1648 23.5275 32 22.6923 32 21.6655V6.7628C32.0001 5.73611 31.1648 4.9008 30.1381 4.9008ZM21.693 3.13623C22.7944 3.13623 23.7242 3.88536 23.9997 4.9008H19.3863C19.6617 3.88536 20.5915 3.13623 21.693 3.13623ZM5.49239 6.48524C6.43664 6.48524 7.20489 7.25349 7.20489 8.1978C7.20489 9.14206 6.43664 9.91031 5.49239 9.91031C4.54807 9.91031 3.77982 9.14206 3.77982 8.1978C3.77982 7.25349 4.54807 6.48524 5.49239 6.48524ZM7.60964 13.1581V28.8636H6.30958V21.8375C6.30958 21.4924 6.0297 21.2125 5.68457 21.2125C5.33945 21.2125 5.05957 21.4924 5.05957 21.8375V28.8636H3.75957V15.5646C3.75957 15.2194 3.47976 14.9396 3.13457 14.9396C2.78944 14.9396 2.50957 15.2194 2.50957 15.5646V21.5285C1.79232 21.3915 1.25 20.7841 1.25 20.0575V15.4026C1.25 13.0634 3.22119 11.1603 5.64414 11.1603H17.13C16.867 11.9567 16.1157 12.5331 15.2323 12.5331H8.23464C7.88952 12.5331 7.60964 12.8129 7.60964 13.1581ZM24.7705 28.8635H19.0314L20.8224 23.5275H22.9795L24.7705 28.8635ZM30.7501 21.6655C30.7501 22.003 30.4755 22.2775 30.1381 22.2775C30.1381 22.2775 20.3849 22.2775 20.3835 22.2775H13.2478C12.9104 22.2775 12.6358 22.003 12.6358 21.6655V18.0087C12.6358 17.6636 12.356 17.3837 12.0108 17.3837C11.6657 17.3837 11.3858 17.6636 11.3858 18.0087V21.6655C11.3858 22.6923 12.2211 23.5275 13.2478 23.5275H19.5038L17.7128 28.8636H8.85964V13.7831H15.2323C17.0231 13.7831 18.4801 12.3262 18.4801 10.5354C18.4801 10.1902 18.2002 9.91037 17.8551 9.91037H12.6358V6.76287C12.6358 6.42543 12.9104 6.15086 13.2478 6.15086H30.1381C30.4755 6.15086 30.7501 6.42543 30.7501 6.76287V21.6655Z" fill="#2BA860"/>
<path d="M27.0714 13.4555C26.8272 13.2115 26.4316 13.2115 26.1875 13.4555L23.5103 16.1326L22.5339 15.1563C22.2898 14.9123 21.8942 14.9123 21.65 15.1563L18.1991 18.6072L17.2352 17.6433C17.118 17.5261 16.959 17.4602 16.7933 17.4602C16.6275 17.4602 16.4685 17.5261 16.3514 17.6433L14.5585 19.4362C14.3144 19.6803 14.3144 20.076 14.5585 20.3202C14.6805 20.4422 14.8405 20.5032 15.0004 20.5032C15.1603 20.5032 15.3203 20.4422 15.4423 20.3202L16.7932 18.9692L17.7571 19.9331C18.0012 20.1771 18.3969 20.1771 18.641 19.9331L22.0919 16.4822L23.0683 17.4586C23.3124 17.7026 23.708 17.7026 23.9522 17.4586L27.0714 14.3395C27.3154 14.0954 27.3154 13.6996 27.0714 13.4555Z" fill="#2BA860"/>
</svg>
