<svg width="32" height="32" viewBox="0 0 32 32" fill="none" xmlns="http://www.w3.org/2000/svg">
<path d="M31.8169 5.86975L26.1294 0.183062C26.0122 0.065875 25.8533 0 25.6875 0H7.125C6.09113 0 5.25 0.841125 5.25 1.875V3.0665C2.17969 4.27087 0 7.26344 0 10.7557C0 11.1008 0.279875 11.3807 0.625 11.3807H8.25569C8.60081 11.3807 8.88069 11.1008 8.88069 10.7557V3.125C8.88069 2.77988 8.60081 2.5 8.25569 2.5C7.65331 2.5 7.06606 2.56544 6.5 2.68856V1.875C6.5 1.53038 6.78038 1.25 7.125 1.25H25.0625V5.0625C25.0625 6.09637 25.9036 6.9375 26.9375 6.9375H30.75V30.125C30.75 30.4696 30.4696 30.75 30.125 30.75H7.125C6.78038 30.75 6.5 30.4696 6.5 30.125V24.7708C6.5 24.4257 6.22013 24.1458 5.875 24.1458C5.52987 24.1458 5.25 24.4257 5.25 24.7708V30.125C5.25 31.1589 6.09113 32 7.125 32H30.125C31.1589 32 32 31.1589 32 30.125V6.31169C32 6.14594 31.9341 5.98694 31.8169 5.86975ZM7.63062 3.77769V10.1307H1.27762C1.57644 6.76519 4.26519 4.0765 7.63062 3.77769ZM26.9375 5.6875C26.5929 5.6875 26.3125 5.40712 26.3125 5.0625V2.13375L29.8668 5.6875H26.9375Z" fill="#2BA860"/>
<path d="M6.31681 22.0581C6.20063 21.9418 6.03938 21.875 5.875 21.875C5.71062 21.875 5.54938 21.9418 5.43313 22.0581C5.31688 22.1744 5.25 22.3356 5.25 22.5C5.25 22.6644 5.31681 22.8256 5.43313 22.9418C5.54938 23.0581 5.71062 23.125 5.875 23.125C6.03938 23.125 6.20063 23.0581 6.31681 22.9418C6.43313 22.8256 6.5 22.6644 6.5 22.5C6.5 22.3356 6.43313 22.1744 6.31681 22.0581Z" fill="#2BA860"/>
<path d="M10.494 4.73871C10.1489 4.73871 9.86903 5.01858 9.86903 5.36371V12.3693H2.8634C2.51828 12.3693 2.2384 12.6492 2.2384 12.9943C2.2384 17.5465 5.94184 21.25 10.494 21.25C15.0462 21.25 18.7497 17.5465 18.7497 12.9943C18.7497 8.44215 15.0462 4.73871 10.494 4.73871ZM11.119 6.0164C12.5822 6.14627 13.9172 6.72815 14.9838 7.62077L11.119 11.4855V6.0164ZM10.494 20C6.84172 20 3.83315 17.1907 3.51609 13.6193H10.494C10.6665 13.6193 10.8227 13.5495 10.9358 13.4365C10.9358 13.4364 10.9359 13.4364 10.936 13.4363L15.8678 8.50452C16.886 9.72121 17.4997 11.2875 17.4997 12.9943C17.4997 16.8573 14.357 20 10.494 20Z" fill="#2BA860"/>
<path d="M27.3793 19.7253C26.3454 19.7253 25.5043 20.5665 25.5043 21.6003C25.5043 21.8595 25.5572 22.1064 25.6526 22.3311L22.0518 25.9319C21.8043 25.8113 21.5266 25.7435 21.2333 25.7435C20.947 25.7435 20.6756 25.8083 20.4327 25.9235L18.0416 23.5323C18.1245 23.3208 18.1705 23.0909 18.1705 22.8503C18.1705 21.8164 17.3293 20.9753 16.2955 20.9753C15.2616 20.9753 14.4205 21.8164 14.4205 22.8503C14.4205 23.1304 14.4826 23.3962 14.5933 23.6351L12.2998 25.9285C12.0555 25.8117 11.7821 25.7461 11.4938 25.7461C10.4599 25.7461 9.61877 26.5872 9.61877 27.6211C9.61877 28.655 10.4599 29.4961 11.4938 29.4961C12.5276 29.4961 13.3688 28.655 13.3688 27.6211C13.3688 27.3313 13.3026 27.0567 13.1848 26.8115L15.4654 24.5308C15.7158 24.6551 15.9976 24.7253 16.2956 24.7253C16.6322 24.7253 16.948 24.6357 17.2213 24.4798L19.545 26.8035C19.4255 27.0501 19.3583 27.3266 19.3583 27.6185C19.3583 28.6524 20.1995 29.4935 21.2333 29.4935C22.2672 29.4935 23.1083 28.6524 23.1083 27.6185C23.1083 27.3337 23.0442 27.0635 22.93 26.8215L26.4972 23.2543C26.7603 23.3952 27.0606 23.4753 27.3793 23.4753C28.4131 23.4753 29.2543 22.6342 29.2543 21.6003C29.2543 20.5665 28.4131 19.7253 27.3793 19.7253ZM11.4937 28.2462C11.1491 28.2462 10.8687 27.9658 10.8687 27.6212C10.8687 27.2765 11.1491 26.9962 11.4937 26.9962C11.6615 26.9962 11.8137 27.063 11.9261 27.171C11.9286 27.1736 11.9308 27.1764 11.9333 27.179C11.9363 27.182 11.9396 27.1845 11.9426 27.1873C12.0514 27.2998 12.1187 27.4527 12.1187 27.6212C12.1187 27.9657 11.8383 28.2462 11.4937 28.2462ZM16.2955 23.4753C15.9508 23.4753 15.6705 23.1949 15.6705 22.8503C15.6705 22.5057 15.9508 22.2253 16.2955 22.2253C16.6401 22.2253 16.9205 22.5057 16.9205 22.8503C16.9205 23.1949 16.6401 23.4753 16.2955 23.4753ZM21.2332 28.2435C20.8886 28.2435 20.6082 27.9632 20.6082 27.6185C20.6082 27.2739 20.8886 26.9935 21.2332 26.9935C21.5778 26.9935 21.8582 27.2739 21.8582 27.6185C21.8582 27.9632 21.5778 28.2435 21.2332 28.2435ZM27.3792 22.2253C27.0345 22.2253 26.7542 21.9449 26.7542 21.6003C26.7542 21.2557 27.0346 20.9753 27.3792 20.9753C27.7238 20.9753 28.0042 21.2557 28.0042 21.6003C28.0042 21.9449 27.7238 22.2253 27.3792 22.2253Z" fill="#2BA860"/>
<path d="M24.2561 14.6875H20.9574C20.6123 14.6875 20.3324 14.9674 20.3324 15.3125C20.3324 15.6576 20.6122 15.9375 20.9574 15.9375H24.2561C24.6012 15.9375 24.8811 15.6576 24.8811 15.3125C24.8811 14.9674 24.6012 14.6875 24.2561 14.6875Z" fill="#2BA860"/>
<path d="M27.5429 14.8706C27.4268 14.7544 27.2655 14.6875 27.1011 14.6875C26.9368 14.6875 26.7755 14.7543 26.6593 14.8706C26.543 14.9869 26.4761 15.1481 26.4761 15.3125C26.4761 15.4769 26.5429 15.6381 26.6593 15.7543C26.7755 15.8706 26.9361 15.9375 27.1011 15.9375C27.2655 15.9375 27.4268 15.8706 27.5429 15.7543C27.6592 15.6381 27.7261 15.4769 27.7261 15.3125C27.7261 15.1481 27.6593 14.9869 27.5429 14.8706Z" fill="#2BA860"/>
<path d="M28.592 8.6875H20.9574C20.6123 8.6875 20.3324 8.96738 20.3324 9.3125C20.3324 9.65762 20.6122 9.9375 20.9574 9.9375H28.592C28.9371 9.9375 29.217 9.65762 29.217 9.3125C29.217 8.96738 28.9371 8.6875 28.592 8.6875Z" fill="#2BA860"/>
<path d="M28.592 11.6875H20.9574C20.6123 11.6875 20.3324 11.9674 20.3324 12.3125C20.3324 12.6576 20.6122 12.9375 20.9574 12.9375H28.592C28.9371 12.9375 29.217 12.6576 29.217 12.3125C29.217 11.9674 28.9371 11.6875 28.592 11.6875Z" fill="#2BA860"/>
</svg>
