<svg width="32" height="32" viewBox="0 0 32 32" fill="none" xmlns="http://www.w3.org/2000/svg">
<g clip-path="url(#clip0)">
<path d="M2.5288 19.5838C2.65087 19.7059 2.81079 19.7669 2.9707 19.7669C3.13061 19.7669 3.29052 19.7059 3.41259 19.5838L12.8725 10.1241L18.5996 15.8514C18.7168 15.9686 18.8759 16.0345 19.0415 16.0345C19.2072 16.0345 19.3662 15.9686 19.4836 15.8514L22.8054 12.5294C23.0495 12.2855 23.0495 11.8898 22.8054 11.6456C22.5612 11.4015 22.1657 11.4015 21.9216 11.6456L19.0415 14.5255L13.3144 8.79822C13.197 8.68103 13.0381 8.61512 12.8725 8.61512C12.7068 8.61512 12.5478 8.68103 12.4304 8.79822L2.9707 18.2582L1.50879 16.7962L12.8725 5.43275L18.5998 11.16C18.717 11.2772 18.8759 11.3431 19.0417 11.3431C19.2075 11.3431 19.3664 11.2772 19.4836 11.16L27.0314 3.61195C27.2756 3.36806 27.2756 2.9723 27.0314 2.72816L26.8012 2.4977L30.4909 1.50917L29.5024 5.19886L29.3771 5.07386C29.2599 4.95668 29.101 4.89076 28.9352 4.89076C28.7695 4.89076 28.6105 4.95668 28.4933 5.07386L25.4572 8.10999C25.2131 8.35413 25.2131 8.74988 25.4572 8.99402C25.7014 9.23792 26.0969 9.23792 26.3413 8.99402L28.9355 6.39979L29.384 6.84827C29.5419 7.00599 29.7719 7.068 29.9877 7.01014C30.2033 6.95228 30.3718 6.78382 30.4296 6.56824L31.9787 0.787007C32.0366 0.571187 31.9748 0.341207 31.8168 0.183248C31.6591 0.0252895 31.4289 -0.0362338 31.2133 0.0213832L25.4321 1.57045C25.2165 1.62831 25.048 1.79677 24.9902 2.01259C24.9323 2.22817 24.9941 2.45839 25.1518 2.6161L25.7058 3.17006L19.0417 9.83411L13.3144 4.10682C13.0705 3.86293 12.6748 3.86268 12.4306 4.10682L0.183105 16.3544C-0.061035 16.5985 -0.061035 16.9942 0.183105 17.2384L2.5288 19.5838Z" fill="#2BA860"/>
<path d="M31.3749 30.75H30.7499V11.8542C30.7499 11.509 30.4701 11.2292 30.1249 11.2292H26.6249C26.2797 11.2292 25.9999 11.509 25.9999 11.8542V30.75H24.5624V19.3125C24.5624 18.9675 24.2827 18.6875 23.9374 18.6875H20.4375C20.0922 18.6875 19.8125 18.9675 19.8125 19.3125V30.75H18.375V22.625C18.375 22.28 18.0952 22 17.75 22H14.25C13.9048 22 13.625 22.28 13.625 22.625V30.75H12.1875V19.3125C12.1875 18.9675 11.9077 18.6875 11.5625 18.6875H8.06248C7.71727 18.6875 7.43748 18.9675 7.43748 19.3125V30.75H5.99999V25.0207C5.99999 24.6758 5.7202 24.3957 5.37499 24.3957H1.875C1.52978 24.3957 1.25 24.6758 1.25 25.0207V30.75H0.624999C0.279785 30.75 0 31.03 0 31.375C0 31.7202 0.279785 32 0.624999 32H31.3749C31.7201 32 31.9999 31.7202 31.9999 31.375C31.9999 31.03 31.7201 30.75 31.3749 30.75ZM2.49999 30.75V25.6457H4.74999V30.75H2.49999ZM8.68748 30.75V19.9375H10.9375V30.75H8.68748ZM14.875 30.75V23.25H17.125V30.75H14.875ZM21.0625 30.75V19.9375H23.3125V30.75H21.0625ZM27.2499 30.75V12.4792H29.4999V30.75H27.2499Z" fill="#2BA860"/>
<path d="M23.6895 9.87744C23.5732 9.99365 23.5063 10.155 23.5063 10.3193C23.5063 10.4844 23.5732 10.645 23.6895 10.7612C23.8057 10.8782 23.9668 10.9443 24.1313 10.9443C24.2957 10.9443 24.4568 10.8782 24.5732 10.7612C24.6899 10.645 24.7563 10.4839 24.7563 10.3193C24.7563 10.155 24.6899 9.99438 24.5732 9.87744C24.4568 9.76123 24.2957 9.69434 24.1313 9.69434C23.9668 9.69434 23.8057 9.76123 23.6895 9.87744Z" fill="#2BA860"/>
</g>
<defs>
<clipPath id="clip0">
<path d="M0 0H32V32H0V0Z" fill="white"/>
</clipPath>
</defs>
</svg>
