<svg width="32" height="32" viewBox="0 0 32 32" fill="none" xmlns="http://www.w3.org/2000/svg">
<path d="M3.81421 15.4019C4.15938 15.4019 4.43921 15.122 4.43921 14.7769C4.43921 14.4317 4.15938 14.1519 3.81421 14.1519C3.46903 14.1519 3.18921 14.4317 3.18921 14.7769C3.18921 15.122 3.46903 15.4019 3.81421 15.4019Z" fill="#2BA860"/>
<path d="M6.57153 15.4019C6.91671 15.4019 7.19653 15.122 7.19653 14.7769C7.19653 14.4317 6.91671 14.1519 6.57153 14.1519C6.22636 14.1519 5.94653 14.4317 5.94653 14.7769C5.94653 15.122 6.22636 15.4019 6.57153 15.4019Z" fill="#2BA860"/>
<path d="M9.40454 15.4019C9.74972 15.4019 10.0295 15.122 10.0295 14.7769C10.0295 14.4317 9.74972 14.1519 9.40454 14.1519C9.05936 14.1519 8.77954 14.4317 8.77954 14.7769C8.77954 15.122 9.05936 15.4019 9.40454 15.4019Z" fill="#2BA860"/>
<path d="M20.167 15.0481C20.5122 15.0481 20.792 14.7683 20.792 14.4231C20.792 14.0779 20.5122 13.7981 20.167 13.7981C19.8218 13.7981 19.542 14.0779 19.542 14.4231C19.542 14.7683 19.8218 15.0481 20.167 15.0481Z" fill="#2BA860"/>
<path d="M26.0073 12.5025C26.3525 12.5025 26.6323 12.2227 26.6323 11.8775C26.6323 11.5323 26.3525 11.2525 26.0073 11.2525C25.6621 11.2525 25.3823 11.5323 25.3823 11.8775C25.3823 12.2227 25.6621 12.5025 26.0073 12.5025Z" fill="#2BA860"/>
<path d="M28.7648 12.5025C29.1099 12.5025 29.3898 12.2227 29.3898 11.8775C29.3898 11.5323 29.1099 11.2525 28.7648 11.2525C28.4196 11.2525 28.1398 11.5323 28.1398 11.8775C28.1398 12.2227 28.4196 12.5025 28.7648 12.5025Z" fill="#2BA860"/>
<path d="M3.81421 27.0462C4.15938 27.0462 4.43921 26.7664 4.43921 26.4212C4.43921 26.0761 4.15938 25.7962 3.81421 25.7962C3.46903 25.7962 3.18921 26.0761 3.18921 26.4212C3.18921 26.7664 3.46903 27.0462 3.81421 27.0462Z" fill="#2BA860"/>
<path d="M6.57153 27.0462C6.91671 27.0462 7.19653 26.7664 7.19653 26.4212C7.19653 26.0761 6.91671 25.7962 6.57153 25.7962C6.22636 25.7962 5.94653 26.0761 5.94653 26.4212C5.94653 26.7664 6.22636 27.0462 6.57153 27.0462Z" fill="#2BA860"/>
<path d="M27.3849 4.04842C27.7301 4.04842 28.0099 3.76859 28.0099 3.42342C28.0099 3.07824 27.7301 2.79842 27.3849 2.79842C27.0397 2.79842 26.7599 3.07824 26.7599 3.42342C26.7599 3.76859 27.0397 4.04842 27.3849 4.04842Z" fill="#2BA860"/>
<path d="M31.375 8.39668H23.3949C23.0497 8.39668 22.7699 8.67655 22.7699 9.02168V16.3511H11.2926C10.9474 16.3511 10.6676 16.631 10.6676 16.9761V26.6597C10.6676 27.0048 10.9474 27.2847 11.2926 27.2847H19.5419V30.3079H1.25V1.69218H19.5418V11.8778C19.5418 12.2229 19.8216 12.5028 20.1668 12.5028C20.512 12.5028 20.7918 12.2229 20.7918 11.8778V1.06718C20.7918 0.722052 20.512 0.442177 20.1668 0.442177H0.625C0.279813 0.442177 0 0.722052 0 1.06718V30.9328C0 31.2779 0.279813 31.5578 0.625 31.5578H20.1668C20.512 31.5578 20.7918 31.2779 20.7918 30.9328V27.2846H27.8669C28.2121 27.2846 28.4919 27.0047 28.4919 26.6596V20.6106H31.375C31.7202 20.6106 32 20.3307 32 19.9856V9.02168C32 8.67649 31.7202 8.39668 31.375 8.39668ZM25.6276 17.6011L19.5798 21.096L13.532 17.6011H25.6276ZM27.2419 26.0346H11.9176V18.1119L19.2671 22.359C19.3638 22.4149 19.4718 22.4429 19.5798 22.4429C19.6877 22.4429 19.7957 22.4149 19.8924 22.359L27.2419 18.1119V26.0346ZM30.75 19.3606H28.492V16.9761C28.492 16.631 28.2122 16.3511 27.867 16.3511H24.0199V9.64668H30.75V19.3606Z" fill="#2BA860"/>
<path d="M5.59483 7.17583C4.12615 7.17583 2.93127 8.37064 2.93127 9.83933C2.93127 11.308 4.12615 12.5028 5.59483 12.5028C7.06352 12.5028 8.25839 11.308 8.25839 9.83933C8.25839 8.37064 7.06352 7.17583 5.59483 7.17583ZM5.59483 11.2528C4.8154 11.2528 4.18127 10.6187 4.18127 9.83933C4.18127 9.05995 4.8154 8.42583 5.59483 8.42583C6.37427 8.42583 7.00839 9.05989 7.00839 9.83933C7.00839 10.6188 6.37427 11.2528 5.59483 11.2528Z" fill="#2BA860"/>
<path d="M31.3747 0.442177H23.3945C23.0493 0.442177 22.7695 0.722052 22.7695 1.06718V5.77968C22.7695 6.1248 23.0493 6.40468 23.3945 6.40468H31.3747C31.7198 6.40468 31.9997 6.1248 31.9997 5.77968V1.06718C31.9997 0.722052 31.7198 0.442177 31.3747 0.442177ZM30.7497 5.15474H24.0195V1.69224H30.7497V5.15474Z" fill="#2BA860"/>
<path d="M16.9067 4.31684H3.4856C3.14041 4.31684 2.8606 4.59672 2.8606 4.94184C2.8606 5.28697 3.14041 5.56684 3.4856 5.56684H16.9067C17.2519 5.56684 17.5317 5.28703 17.5317 4.94184C17.5317 4.59672 17.2519 4.31684 16.9067 4.31684Z" fill="#2BA860"/>
</svg>
