<svg width="32" height="32" viewBox="0 0 32 32" fill="none" xmlns="http://www.w3.org/2000/svg">
<path d="M15.944 4.06625C16.2916 4.06625 16.5734 3.78444 16.5734 3.43681V0.629438C16.5734 0.281813 16.2916 0 15.944 0C15.5964 0 15.3146 0.281813 15.3146 0.629438V3.43681C15.3146 3.78444 15.5964 4.06625 15.944 4.06625Z" fill="#2BA860"/>
<path d="M31.3304 21.6241L30.2185 20.5152C29.8229 20.1202 29.2957 19.9026 28.734 19.9026C28.3748 19.9026 28.03 19.9919 27.7244 20.1594L25.629 18.0665L25.7311 17.9646C26.5812 17.1128 26.5808 15.7287 25.731 14.8799C25.4273 14.5756 25.0484 14.3727 24.6353 14.2874C24.6922 14.0911 24.7221 13.8854 24.7221 13.675C24.7221 13.0903 24.495 12.5421 24.0839 12.1326C23.7801 11.8284 23.4013 11.6255 22.9882 11.5401C23.0451 11.3438 23.075 11.1382 23.075 10.9277C23.075 10.343 22.8479 9.79481 22.4361 9.38475C22.1251 9.07412 21.7428 8.8775 21.3413 8.79381C21.5561 8.05337 21.3726 7.22031 20.7901 6.63681C20.3052 6.154 19.6473 5.9465 19.0132 6.01375L14.861 5.22781C14.2278 5.10768 13.437 5.02825 12.9378 5.48356C12.9063 5.51231 12.8741 5.54537 12.8425 5.58218C12.0685 5.30006 11.1658 5.46806 10.546 6.08718C10.1348 6.49787 9.90827 7.04587 9.90827 7.63025C9.90827 7.84075 9.93809 8.04631 9.9949 8.24268C9.58227 8.328 9.20384 8.53062 8.90115 8.83387C8.48915 9.24418 8.26196 9.79156 8.26152 10.3752C8.26134 10.5862 8.29127 10.7925 8.3484 10.9894C7.93559 11.0745 7.5569 11.2767 7.25327 11.58C6.84127 11.9916 6.6144 12.5399 6.6144 13.1239C6.6144 13.5713 6.74796 13.9975 6.99546 14.3575C6.68296 14.4634 6.39671 14.6397 6.15702 14.8792C5.3064 15.7287 5.30609 17.1129 6.15759 17.9659L6.25927 18.0671L4.16365 20.1589C3.38484 19.7922 2.42527 19.9296 1.78259 20.5715L0.669962 21.681C0.274212 22.0762 0.0563369 22.6035 0.0562744 23.1656C0.0562744 23.7277 0.274212 24.255 0.669962 24.6503L2.05852 26.0372C2.30446 26.2829 2.70302 26.2826 2.94865 26.0367C3.19434 25.7907 3.19409 25.3922 2.94815 25.1466L1.55959 23.7597C1.40196 23.6022 1.31515 23.3912 1.31515 23.1656C1.31515 22.9401 1.40196 22.7291 1.55921 22.5721L2.6719 21.4625C2.9499 21.1848 3.3754 21.1434 3.69852 21.3366C3.72127 21.3708 3.74759 21.4033 3.77771 21.4335C3.83165 21.4876 3.89321 21.529 3.95859 21.5593L10.3394 27.9307C10.3697 27.9968 10.4113 28.059 10.4656 28.1134C10.5185 28.1663 10.5788 28.2072 10.6428 28.2374C10.7778 28.3899 10.8523 28.5848 10.8523 28.7927C10.8523 29.0183 10.7655 29.2292 10.6079 29.3867L9.49634 30.4969C9.1679 30.8239 8.63365 30.8239 8.30621 30.4979L6.91765 29.1092C6.67184 28.8634 6.27334 28.8634 6.02752 29.1092C5.78171 29.3551 5.78171 29.7536 6.02752 29.9994L7.41709 31.3891C7.82609 31.7964 8.36321 31.9999 8.90059 31.9999C9.43809 31.9999 9.97584 31.7961 10.3853 31.3884L11.4976 30.2774C11.8933 29.8821 12.1113 29.3549 12.1113 28.7927C12.1113 28.3915 11.9997 28.0084 11.7923 27.678L14.1508 25.3224C14.1533 25.3198 14.1558 25.3172 14.1583 25.3147C14.4284 25.0355 15.1805 25.0877 15.9078 25.1382C16.4245 25.1742 17.0006 25.2141 17.5635 25.1492L20.1463 27.7289C19.979 28.034 19.8896 28.3784 19.8896 28.737C19.8896 29.2986 20.1076 29.8255 20.5033 30.2208L21.6156 31.3317C22.0111 31.7268 22.5383 31.9444 23.1001 31.9444C23.6618 31.9444 24.189 31.7269 24.5845 31.3317L31.3308 24.5936C31.7266 24.1984 31.9445 23.6711 31.9445 23.109C31.9445 22.5469 31.7265 22.0197 31.3304 21.6241ZM14.6266 6.46468L17.3571 6.9815L15.7228 8.61518C15.47 8.49368 15.1235 8.26706 14.7433 7.90343C14.223 7.40568 13.8508 6.831 13.817 6.47256C13.8169 6.47237 13.8169 6.47218 13.8169 6.472C13.8169 6.47193 13.8168 6.47187 13.8168 6.47181C13.8144 6.44606 13.8138 6.4255 13.8141 6.40981C13.8964 6.38981 14.115 6.36762 14.6266 6.46468ZM11.4355 6.97787C11.7544 6.65931 12.2498 6.62256 12.6101 6.86656C12.8143 7.72268 13.5446 8.49862 13.8731 8.813C14.1166 9.046 14.898 9.74456 15.6866 9.93656C15.7933 10.0895 15.8513 10.2718 15.8513 10.4642C15.8513 10.712 15.756 10.9437 15.5823 11.1172C15.4092 11.2907 15.1771 11.3862 14.9288 11.3862C14.6805 11.3862 14.4485 11.2907 14.2745 11.1164L14.2744 11.1163L14.2741 11.116L11.4355 8.2825C11.2624 8.10968 11.1671 7.878 11.1671 7.63025C11.1672 7.38243 11.2625 7.15075 11.4355 6.97787ZM9.79077 9.72456C9.96396 9.55112 10.1958 9.45556 10.4436 9.45556C10.6918 9.45556 10.9244 9.55131 11.0987 9.72543L13.3845 12.0066C13.7444 12.3671 13.7444 12.9537 13.3857 13.313C13.2116 13.4864 12.9787 13.5819 12.73 13.5819C12.4813 13.5819 12.2485 13.4864 12.0751 13.3137L12.075 13.3137L10.341 11.58C10.3383 11.5773 10.3353 11.5748 10.3326 11.5721L9.79009 11.0298C9.61602 10.8559 9.52021 10.6238 9.5204 10.3762C9.52065 10.1294 9.61615 9.89843 9.79077 9.72456ZM8.1429 12.4707C8.31621 12.2976 8.54852 12.2023 8.79715 12.2023C9.04371 12.2023 9.27402 12.2962 9.44659 12.4663L11.186 14.2049C11.3594 14.3776 11.455 14.6091 11.455 14.8566C11.455 15.104 11.3594 15.3354 11.1853 15.5089C11.012 15.6819 10.78 15.7772 10.5318 15.7772C10.2832 15.7772 10.0504 15.6816 9.8769 15.5089L9.24634 14.8791C9.24621 14.8789 9.24602 14.8787 9.2459 14.8786L8.14296 13.777C7.96909 13.6033 7.87334 13.3713 7.87334 13.1238C7.87334 12.8764 7.96909 12.6443 8.1429 12.4707ZM7.04665 15.7698C7.22071 15.5959 7.45334 15.5002 7.70165 15.5002C7.9499 15.5002 8.18246 15.5959 8.35646 15.7696L8.9879 16.4003C9.1614 16.5731 9.2569 16.8045 9.2569 17.052C9.2569 17.2995 9.16134 17.5309 8.98659 17.705C8.8134 17.8784 8.58134 17.974 8.33309 17.974C8.08477 17.974 7.85271 17.8785 7.67827 17.7037L7.59921 17.625C7.59815 17.6239 7.59734 17.6228 7.59634 17.6218C7.59515 17.6207 7.5939 17.6197 7.59271 17.6186L7.04727 17.0752C6.68734 16.7146 6.68702 16.129 7.04665 15.7698ZM19.8738 22.9234C19.6281 22.6774 19.2295 22.6772 18.9836 22.9229L18.4236 23.4822C17.8915 24.0143 16.9273 23.9473 15.9949 23.8826C14.9823 23.8122 13.9353 23.7396 13.2577 24.4352L10.9393 26.7509L5.14159 20.9617L7.19334 18.9136C7.53246 19.1215 7.92377 19.2329 8.33321 19.2329C8.91815 19.2329 9.46665 19.0062 9.87634 18.5957C10.2888 18.185 10.516 17.6368 10.516 17.0521C10.516 17.0466 10.5156 17.0412 10.5156 17.0358C10.521 17.0359 10.5265 17.0362 10.5319 17.0362C11.116 17.0362 11.6641 16.8101 12.0743 16.4004C12.4868 15.9896 12.714 15.4414 12.714 14.8567C12.714 14.8512 12.7136 14.8459 12.7136 14.8404C12.7191 14.8404 12.7246 14.8408 12.7301 14.8408C13.3141 14.8408 13.8625 14.615 14.2755 14.2037C14.7042 13.7742 14.9163 13.2089 14.9122 12.6447C14.9178 12.6447 14.9235 12.6451 14.9291 12.6451C15.514 12.645 16.0625 12.4183 16.4728 12.0072C16.884 11.5966 17.1105 11.0486 17.1105 10.4642C17.1105 10.0555 16.9993 9.66481 16.7921 9.32637L18.5905 7.52881C18.7245 7.39537 18.8897 7.31162 19.0629 7.27706C19.0816 7.27506 19.1001 7.27206 19.1185 7.26843C19.3963 7.23012 19.6881 7.31587 19.9006 7.5275C20.2606 7.88806 20.2606 8.47468 19.902 8.83393L19.3543 9.37937C19.3525 9.38118 19.3505 9.38281 19.3487 9.38462L18.7179 10.0144C18.4719 10.26 18.4716 10.6586 18.7173 10.9045C18.9631 11.1505 19.3616 11.1507 19.6075 10.9051L20.1573 10.3559C20.1575 10.3558 20.1576 10.3557 20.1577 10.3556L20.2408 10.2727C20.6018 9.91512 21.1865 9.91587 21.5471 10.2759C21.7206 10.4487 21.8161 10.6801 21.8161 10.9276C21.8161 11.1751 21.7206 11.4065 21.5457 11.5806L20.9949 12.1326C20.9948 12.1326 20.9948 12.1327 20.9947 12.1328L20.364 12.761C20.1176 13.0063 20.1168 13.4049 20.3621 13.6511C20.6075 13.8974 21.006 13.8982 21.2523 13.6529L21.8859 13.0219C22.0591 12.8484 22.2911 12.7529 22.5394 12.7529C22.7877 12.7529 23.0198 12.8484 23.1943 13.0231C23.3678 13.1959 23.4633 13.4274 23.4633 13.6749C23.4633 13.9223 23.3678 14.1537 23.1933 14.3275L22.0951 15.4261C21.8494 15.6719 21.8495 16.0704 22.0953 16.3162C22.2182 16.4391 22.3792 16.5004 22.5403 16.5004C22.7014 16.5004 22.8625 16.4389 22.9854 16.316L23.5236 15.7776C23.5266 15.7747 23.53 15.7721 23.533 15.7691C23.7062 15.5956 23.9383 15.5001 24.1865 15.5001C24.4348 15.5001 24.6669 15.5956 24.8407 15.7697C25.2003 16.1289 25.2 16.7145 24.8407 17.0744L24.2935 17.6209C24.2933 17.6211 24.2931 17.6213 24.2929 17.6215C24.2927 17.6217 24.2925 17.6219 24.2923 17.6221L23.4238 18.4896C23.1779 18.7352 23.1776 19.1338 23.4233 19.3797C23.5462 19.5028 23.7075 19.5644 23.8686 19.5644C24.0296 19.5644 24.1906 19.503 24.3135 19.3803L24.7383 18.956L26.7743 20.9897L20.9771 26.7798L18.9 24.7052C19.0448 24.6121 19.1834 24.5026 19.3135 24.3725L19.8731 23.8135C20.1192 23.5679 20.1195 23.1694 19.8738 22.9234ZM30.4411 23.7029L23.6948 30.4411C23.537 30.5987 23.3258 30.6855 23.1 30.6855C22.8743 30.6855 22.663 30.5987 22.5051 30.441L21.3928 29.3301C21.2352 29.1727 21.1484 28.9621 21.1484 28.737C21.1484 28.512 21.2352 28.3014 21.3928 28.1439L28.1391 21.4058C28.297 21.2481 28.5082 21.1613 28.734 21.1613C28.9598 21.1613 29.171 21.2481 29.3293 21.4062L30.4412 22.515C30.5988 22.6724 30.6856 22.8833 30.6856 23.1089C30.6856 23.3346 30.5988 23.5456 30.4411 23.7029Z" fill="#2BA860"/>
<path d="M7.58572 3.53563C7.7086 3.65825 7.86947 3.7195 8.03035 3.7195C8.1916 3.7195 8.35291 3.65788 8.47585 3.53469C8.72141 3.28863 8.72103 2.89013 8.47497 2.64456L6.18135 0.3555C5.93535 0.109938 5.53678 0.11025 5.29122 0.356375C5.04566 0.602438 5.04603 1.00094 5.2921 1.2465L7.58572 3.53563Z" fill="#2BA860"/>
<path d="M23.8575 3.71951C24.0184 3.71951 24.1794 3.65813 24.3023 3.53544L26.5941 1.24632C26.8401 1.00069 26.8403 0.602132 26.5946 0.356195C26.349 0.110257 25.9505 0.110007 25.7045 0.355695L23.4126 2.64482C23.1667 2.89044 23.1664 3.28901 23.4121 3.53494C23.5351 3.65801 23.6963 3.71951 23.8575 3.71951Z" fill="#2BA860"/>
<path d="M3.92642 27.0753C3.68273 27.3232 3.68611 27.7217 3.93404 27.9654L3.93586 27.9672C4.05817 28.0874 4.21698 28.1473 4.37573 28.1473C4.53867 28.1473 4.70161 28.0842 4.82504 27.9587C5.06873 27.7108 5.06442 27.3114 4.81654 27.0677C4.56873 26.824 4.17023 26.8274 3.92642 27.0753Z" fill="#2BA860"/>
<path d="M21.4125 22.0167C21.5083 22.0167 21.6054 21.9949 21.6966 21.949C22.007 21.7924 22.1316 21.4139 21.9751 21.1035C21.8186 20.7932 21.44 20.6684 21.1297 20.825L21.1262 20.8267C20.8158 20.9833 20.6929 21.3609 20.8494 21.6713C20.9599 21.8905 21.1822 22.0167 21.4125 22.0167Z" fill="#2BA860"/>
</svg>
