<svg width="32" height="32" viewBox="0 0 32 32" fill="none" xmlns="http://www.w3.org/2000/svg">
<g clip-path="url(#clip0)">
<path d="M19.3752 12.25C16.3425 12.25 13.8752 14.7173 13.8752 17.75C13.8752 20.7827 16.3425 23.25 19.3752 23.25C22.408 23.25 24.8752 20.7827 24.8752 17.75C24.8752 14.7173 22.408 12.25 19.3752 12.25ZM19.3752 22C17.0317 22 15.1252 20.0935 15.1252 17.75C15.1252 15.4065 17.0317 13.5 19.3752 13.5C21.7188 13.5 23.6252 15.4065 23.6252 17.75C23.6252 20.0935 21.7188 22 19.3752 22Z" fill="#2BA860"/>
<path d="M19.3752 14.9377C19.03 14.9377 18.7502 15.2175 18.7502 15.5627C18.7502 15.908 19.03 16.1877 19.3752 16.1877C20.2366 16.1877 20.9375 16.8887 20.9375 17.75C20.9375 18.0952 21.2173 18.375 21.5625 18.375C21.9077 18.375 22.1875 18.0952 22.1875 17.75C22.1875 16.1992 20.926 14.9377 19.3752 14.9377Z" fill="#2BA860"/>
<path d="M3.85244 6.46264C3.69375 6.15625 3.31679 6.03637 3.01015 6.19482C2.70351 6.35351 2.58364 6.73071 2.74233 7.03735L4.4247 10.2874C4.53359 10.4978 4.75381 10.6265 4.98916 10.625C5.22597 10.6213 5.44057 10.4841 5.54311 10.2705L6.56167 8.1499L7.66787 10.2874C7.77554 10.4949 7.98965 10.625 8.22305 10.625H8.23233C8.46939 10.6213 8.68374 10.4841 8.78652 10.2705L10.3473 7.02051C10.4967 6.70947 10.3656 6.33593 10.0546 6.18652C9.74331 6.03711 9.37002 6.16821 9.22061 6.47949L8.20205 8.6001L7.09561 6.46264C6.98672 6.25219 6.76699 6.12304 6.5314 6.125C6.29434 6.12866 6.07974 6.26587 5.9772 6.47949L4.95888 8.6001L3.85244 6.46264Z" fill="#2BA860"/>
<path d="M7.87427 3C8.03882 3 8.19995 2.93311 8.31616 2.81689C8.43262 2.70068 8.49927 2.53931 8.49927 2.375C8.49927 2.21069 8.43262 2.04932 8.31616 1.93311C8.19995 1.81689 8.03882 1.75 7.87427 1.75C7.70996 1.75 7.54883 1.81689 7.43262 1.93311C7.31616 2.04932 7.24927 2.21069 7.24927 2.375C7.24927 2.53931 7.31616 2.70068 7.43262 2.81689C7.54883 2.93311 7.70996 3 7.87427 3Z" fill="#2BA860"/>
<path d="M32 12.5V4.25C32 2.87158 30.8784 1.75 29.5 1.75H10.4993C10.1543 1.75 9.87427 2.02979 9.87427 2.375C9.87427 2.72021 10.1543 3 10.4993 3H29.5C30.1892 3 30.75 3.56079 30.75 4.25V12.5C30.75 13.1892 30.1892 13.75 29.5 13.75H26.5C26.4819 13.75 26.4644 13.7512 26.4468 13.7527C25.4822 12.053 23.9229 10.7336 22.0535 10.0791L22.98 8.15015L24.0864 10.2874C24.1938 10.4951 24.408 10.625 24.6414 10.625H24.6509C24.8877 10.6213 25.1023 10.4841 25.2048 10.2705L26.7656 7.02051C26.915 6.70947 26.7839 6.33618 26.4729 6.18677C26.1619 6.03711 25.7883 6.16821 25.6389 6.47949L24.6206 8.6001L23.5142 6.46265C23.4053 6.2522 23.1858 6.12305 22.9497 6.12524C22.7126 6.12866 22.4983 6.26587 22.3958 6.47949L21.3772 8.6001L20.271 6.46265C20.1123 6.15625 19.7351 6.03638 19.4285 6.19507C19.1218 6.35376 19.0022 6.73071 19.1606 7.03735L20.5439 9.70947C20.1624 9.6543 19.7722 9.625 19.3755 9.625C18.6072 9.625 17.8633 9.73242 17.1582 9.93262L18.5569 7.02051C18.7063 6.70947 18.5752 6.33618 18.2639 6.18677C17.9529 6.03711 17.5793 6.16821 17.4302 6.47949L16.4116 8.6001L15.3052 6.46265C15.1963 6.2522 14.9778 6.12305 14.7407 6.12524C14.5039 6.12866 14.2893 6.26587 14.1868 6.47949L13.1685 8.6001L12.062 6.46265C11.9033 6.15625 11.5264 6.03638 11.2197 6.19507C10.9131 6.35376 10.7932 6.73071 10.9519 7.03735L12.6343 10.2874C12.7432 10.4978 12.9624 10.6265 13.1987 10.625C13.4355 10.6213 13.6501 10.4841 13.7527 10.2705L14.7712 8.15015L15.8774 10.2874C15.896 10.3232 15.9187 10.3557 15.9434 10.3867C14.4106 11.104 13.1372 12.2856 12.3054 13.75H2.5C1.81079 13.75 1.25 13.1892 1.25 12.5V4.25C1.25 3.56079 1.81079 3 2.5 3H5.06201C5.40723 3 5.68701 2.72021 5.68701 2.375C5.68701 2.02979 5.40723 1.75 5.06201 1.75H2.5C1.12158 1.75 0 2.87158 0 4.25V12.5C0 13.8787 1.12158 15 2.5 15H11.7297C11.4197 15.8594 11.2502 16.7852 11.2502 17.75C11.2502 22.2302 14.895 25.875 19.3752 25.875C20.8474 25.875 22.2295 25.4814 23.4216 24.7939L28.3821 29.7544C28.7952 30.1675 29.3379 30.374 29.8806 30.374C30.4233 30.374 30.9661 30.1675 31.3792 29.7544C32.2056 28.928 32.2056 27.5835 31.3792 26.7571L29.4302 24.8081C29.186 24.5642 28.7903 24.564 28.5464 24.8081C28.3022 25.0522 28.3022 25.4478 28.5464 25.6919L30.4954 27.6411C30.8342 27.98 30.8342 28.5315 30.4954 28.8706C30.1565 29.2095 29.605 29.2095 29.2661 28.8706L24.47 24.0742C26.3167 22.5837 27.5002 20.3027 27.5002 17.75C27.5002 16.7852 27.3308 15.8594 27.0208 15H29.5C30.8787 15 32 13.8784 32 12.5ZM19.3752 24.625C15.5845 24.625 12.5002 21.5408 12.5002 17.75C12.5002 13.9592 15.5845 10.875 19.3752 10.875C23.166 10.875 26.2502 13.9592 26.2502 17.75C26.2502 21.5408 23.1663 24.625 19.3752 24.625Z" fill="#2BA860"/>
<path d="M27.0637 23.3257C26.9475 23.4419 26.8806 23.603 26.8806 23.7676C26.8806 23.9319 26.9475 24.093 27.0637 24.2095C27.1807 24.3257 27.3413 24.3926 27.5056 24.3926C27.6699 24.3926 27.8313 24.3257 27.9475 24.2095C28.0645 24.093 28.1306 23.9319 28.1306 23.7676C28.1306 23.603 28.0645 23.4419 27.9475 23.3257C27.8313 23.2095 27.6707 23.1426 27.5056 23.1426C27.3413 23.1426 27.1799 23.2095 27.0637 23.3257Z" fill="#2BA860"/>
</g>
<defs>
<clipPath id="clip0">
<path d="M0 0H32V32H0V0Z" fill="white"/>
</clipPath>
</defs>
</svg>
