<svg width="32" height="32" viewBox="0 0 32 32" fill="none" xmlns="http://www.w3.org/2000/svg">
<path d="M29.7772 13.7772C28.7685 13.7772 27.9151 14.4528 27.6444 15.375H24.6055C24.4681 13.4653 23.7068 11.7255 22.5243 10.3596L24.6751 8.20887C24.9984 8.38631 25.3628 8.48094 25.7419 8.48094C26.3357 8.48094 26.8939 8.24975 27.3137 7.82987C27.7336 7.41 27.9648 6.85181 27.9648 6.25806C27.9648 5.66431 27.7336 5.10613 27.3137 4.68625C26.8939 4.26644 26.3357 4.03519 25.7419 4.03519C25.1482 4.03519 24.59 4.26638 24.1701 4.68625C23.7503 5.10613 23.5191 5.66431 23.5191 6.25806C23.5191 6.63719 23.6138 7.00156 23.7912 7.32494L21.6404 9.47569C20.2745 8.29325 18.5348 7.53187 16.6251 7.3945V4.35563C17.5474 4.08488 18.2229 3.2315 18.2229 2.22281C18.2229 0.997187 17.2257 0 16 0C14.7743 0 13.7772 0.997187 13.7772 2.22281C13.7772 3.2315 14.4528 4.08488 15.375 4.35563V7.3945C13.4653 7.53187 11.7255 8.29325 10.3596 9.47569L8.20887 7.32494C8.38631 7.00156 8.48094 6.63719 8.48094 6.25806C8.48094 5.66431 8.24975 5.10613 7.82987 4.68625C7.41 4.26644 6.85181 4.03519 6.25806 4.03519C5.66431 4.03519 5.10613 4.26644 4.68625 4.68625C4.26644 5.10613 4.03519 5.66431 4.03519 6.25806C4.03519 6.85181 4.26638 7.41 4.68625 7.82987C5.10613 8.24969 5.66431 8.48094 6.25806 8.48094C6.63719 8.48094 7.00156 8.38631 7.32494 8.20887L9.47569 10.3596C8.29325 11.7255 7.53187 13.4653 7.3945 15.375H4.35563C4.08488 14.4528 3.2315 13.7772 2.22281 13.7772C0.997187 13.7772 0 14.7743 0 16C0 17.2257 0.997187 18.2228 2.22281 18.2228C3.2315 18.2228 4.08488 17.5473 4.35563 16.625H7.3945C7.53187 18.5347 8.29325 20.2745 9.47569 21.6404L7.32425 23.7918C6.48069 23.3311 5.3995 23.4568 4.68631 24.1701C3.81969 25.0368 3.81969 26.447 4.68631 27.3137C5.10613 27.7336 5.66437 27.9648 6.25812 27.9648C6.85187 27.9648 7.41012 27.7336 7.82994 27.3137C8.54313 26.6004 8.66881 25.5193 8.20819 24.6758L10.3597 22.5243C11.7256 23.7067 13.4653 24.4681 15.3751 24.6054V27.6443C14.4528 27.9151 13.7773 28.7684 13.7773 29.7771C13.7772 31.0029 14.7743 32 16 32C17.2257 32 18.2229 31.0029 18.2229 29.7772C18.2229 28.7685 17.5473 27.9151 16.625 27.6444V24.6055C18.3876 24.4787 20.0054 23.8204 21.3181 22.79C21.3548 22.7663 21.3887 22.7391 21.4193 22.7087C21.4939 22.6483 21.5678 22.5871 21.6404 22.5243L23.7918 24.6758C23.3311 25.5194 23.4569 26.6004 24.1701 27.3137C24.5899 27.7336 25.1481 27.9648 25.7419 27.9648C26.3356 27.9648 26.8939 27.7336 27.3137 27.3137C28.1803 26.447 28.1803 25.0368 27.3137 24.1701C26.6005 23.4569 25.5194 23.3311 24.6758 23.7918L22.5243 21.6404C23.7068 20.2744 24.4681 18.5347 24.6055 16.625H27.6444C27.9151 17.5473 28.7685 18.2228 29.7772 18.2228C31.0028 18.2228 32 17.2257 32 16C32 14.7743 31.0028 13.7772 29.7772 13.7772ZM25.054 5.57019C25.2436 5.3805 25.4928 5.28569 25.7419 5.28569C25.9909 5.28569 26.2401 5.38056 26.4298 5.57019C26.8091 5.9495 26.8091 6.56669 26.4298 6.946C26.2461 7.12975 26.0017 7.23094 25.7419 7.23094C25.4821 7.23094 25.2379 7.12981 25.0541 6.94613C25.0541 6.94606 25.0541 6.946 25.054 6.946C25.0539 6.94594 25.0539 6.94588 25.0538 6.94588C24.8702 6.76213 24.769 6.51794 24.769 6.25812C24.7691 5.99825 24.8703 5.75394 25.054 5.57019ZM6.94594 6.946C6.56669 7.32531 5.94944 7.32531 5.57019 6.946C5.19088 6.56669 5.19088 5.9495 5.57019 5.57019C5.75981 5.3805 6.009 5.28569 6.25806 5.28569C6.50712 5.28569 6.75631 5.38056 6.94594 5.57019C7.32525 5.9495 7.32525 6.56669 6.94594 6.946ZM2.22281 16.9728C1.68637 16.9728 1.25 16.5364 1.25 16C1.25 15.4636 1.68637 15.0272 2.22281 15.0272C2.75925 15.0272 3.19569 15.4636 3.19569 16C3.19569 16.5364 2.75925 16.9728 2.22281 16.9728ZM6.946 26.4298C6.76225 26.6136 6.51794 26.7148 6.25812 26.7148C5.99831 26.7148 5.754 26.6136 5.57025 26.4298C5.19094 26.0506 5.19094 25.4333 5.57025 25.054C5.75987 24.8643 6.009 24.7695 6.25812 24.7695C6.50725 24.7695 6.75638 24.8643 6.946 25.054C7.32531 25.4333 7.32531 26.0506 6.946 26.4298ZM25.0539 25.0542C25.0539 25.0541 25.054 25.0541 25.0541 25.0541C25.0541 25.054 25.0541 25.0539 25.0542 25.0539C25.2439 24.8644 25.4929 24.7696 25.742 24.7696C25.991 24.7696 26.2402 24.8644 26.4298 25.054C26.8091 25.4333 26.8091 26.0505 26.4298 26.4298C26.2461 26.6136 26.0018 26.7148 25.7419 26.7148C25.4821 26.7148 25.2378 26.6136 25.0541 26.4298C24.6748 26.0506 24.6747 25.4334 25.0539 25.0542ZM15.0272 2.22281C15.0272 1.68637 15.4636 1.25 16 1.25C16.5364 1.25 16.9729 1.68637 16.9729 2.22281C16.9729 2.75925 16.5364 3.19569 16 3.19569C15.4636 3.19569 15.0272 2.75925 15.0272 2.22281ZM16.9729 29.7772C16.9729 30.3136 16.5364 30.75 16 30.75C15.4636 30.75 15.0272 30.3136 15.0272 29.7772C15.0272 29.2407 15.4636 28.8044 16 28.8044C16.5364 28.8044 16.9729 29.2407 16.9729 29.7772ZM21.2717 21.1565C20.9093 20.3207 20.3388 19.5734 19.608 18.9947C19.1203 18.6084 18.5707 18.3066 17.9864 18.0961C18.5162 17.5551 18.8438 16.8153 18.8438 16C18.8438 14.347 17.4989 13.0022 15.8459 13.0022C14.1929 13.0022 12.8481 14.347 12.8481 16C12.8481 16.8584 13.2113 17.633 13.7914 18.18C13.2269 18.4099 12.6995 18.7276 12.2319 19.1263C11.9693 19.3503 11.9379 19.7448 12.1619 20.0074C12.3859 20.2701 12.7804 20.3015 13.0431 20.0774C13.8594 19.3813 14.9095 18.9978 16 18.9978C17.9543 18.9978 19.686 20.2466 20.2641 22.0182C19.0592 22.8744 17.5874 23.3783 16 23.3783C11.9316 23.3783 8.62169 20.0684 8.62169 16C8.62169 11.9316 11.9316 8.62169 16 8.62169C20.0684 8.62169 23.3783 11.9316 23.3783 16C23.3783 18.0049 22.5741 19.8254 21.2717 21.1565ZM17.5938 16C17.5938 16.9638 16.8097 17.7478 15.8459 17.7478C14.8822 17.7478 14.0981 16.9638 14.0981 16C14.0981 15.0363 14.8822 14.2522 15.8459 14.2522C16.8097 14.2522 17.5938 15.0363 17.5938 16ZM29.7772 16.9728C29.2407 16.9728 28.8043 16.5364 28.8043 16C28.8043 15.4636 29.2407 15.0272 29.7772 15.0272C30.3136 15.0272 30.75 15.4636 30.75 16C30.75 16.5364 30.3136 16.9728 29.7772 16.9728Z" fill="#2BA860"/>
<path d="M11.5938 21.3563C11.9389 21.3563 12.2188 21.0764 12.2188 20.7313C12.2188 20.3861 11.9389 20.1063 11.5938 20.1063C11.2486 20.1063 10.9688 20.3861 10.9688 20.7313C10.9688 21.0764 11.2486 21.3563 11.5938 21.3563Z" fill="#2BA860"/>
</svg>
