<svg width="32" height="32" viewBox="0 0 32 32" fill="none" xmlns="http://www.w3.org/2000/svg">
<path d="M31.7705 12.4502L28.3274 9.63525V4.41357C28.3274 3.3584 27.469 2.5 26.4136 2.5H21.375C21.0298 2.5 20.75 2.77979 20.75 3.125C20.75 3.47021 21.0298 3.75 21.375 3.75H26.4136C26.7795 3.75 27.0774 4.04785 27.0774 4.41357V15.5068L18.875 21.7432L10.6726 15.5068V9.93433C10.6726 9.93433 10.6726 9.93408 10.6726 9.93384V4.41357C10.6726 4.04785 10.9705 3.75 11.3364 3.75H16.375C16.7202 3.75 17 3.47021 17 3.125C17 2.77979 16.7202 2.5 16.375 2.5H11.3364C10.281 2.5 9.42261 3.3584 9.42261 4.41357V9.63525L5.97949 12.4502C5.83423 12.5688 5.75 12.7466 5.75 12.9341V19.8728H2.9375C2.59229 19.8728 2.3125 20.1526 2.3125 20.4978C2.3125 20.8428 2.59229 21.1228 2.9375 21.1228H5.75V27.5864C5.75 28.6416 6.6084 29.5 7.66357 29.5H30.0864C31.1416 29.5 32 28.6416 32 27.5864V12.9341C32 12.7466 31.9158 12.5688 31.7705 12.4502ZM30.75 27.3022L23.355 19.9072L30.75 14.2849V27.3022ZM28.3274 11.2498L30.4231 12.9631L28.3274 14.5564V11.2498ZM18.875 23.1533C19.0083 23.1533 19.1416 23.1108 19.2534 23.0259L22.3508 20.6709L29.9299 28.25H7.82007L15.3992 20.6709L18.4968 23.0259C18.6084 23.1108 18.7417 23.1533 18.875 23.1533ZM7 14.2849L14.395 19.9072L7 27.3022V14.2849ZM9.42261 14.5564L7.3269 12.9631L9.42261 11.2498V14.5564Z" fill="#2BA860"/>
<path d="M4 23.8728H0.625C0.279785 23.8728 0 24.1526 0 24.4978C0 24.8428 0.279785 25.1228 0.625 25.1228H4C4.34521 25.1228 4.625 24.8428 4.625 24.4978C4.625 24.1526 4.34521 23.8728 4 23.8728Z" fill="#2BA860"/>
<path d="M18.875 3.75C19.0393 3.75 19.2007 3.68311 19.3169 3.56689C19.4331 3.45068 19.5 3.28931 19.5 3.125C19.5 2.96069 19.4331 2.79932 19.3169 2.68311C19.2007 2.56689 19.0393 2.5 18.875 2.5C18.7107 2.5 18.5493 2.56689 18.4331 2.68311C18.3169 2.79932 18.25 2.96069 18.25 3.125C18.25 3.28931 18.3169 3.45068 18.4331 3.56689C18.5493 3.68311 18.7107 3.75 18.875 3.75Z" fill="#2BA860"/>
<path d="M13.8042 11.562C13.8042 14.3582 16.0789 16.6331 18.875 16.6331C21.6711 16.6331 23.9458 14.3582 23.9458 11.562C23.9458 8.76587 21.6711 6.49121 18.875 6.49121C16.0789 6.49121 13.8042 8.76587 13.8042 11.562ZM22.6958 11.562C22.6958 13.6689 20.9819 15.3831 18.875 15.3831C16.7681 15.3831 15.0542 13.6689 15.0542 11.562C15.0542 9.45508 16.7681 7.74121 18.875 7.74121C20.9819 7.74121 22.6958 9.45532 22.6958 11.562Z" fill="#2BA860"/>
<path d="M17.9014 10.9849C17.6572 10.7407 17.2617 10.7407 17.0176 10.9849C16.7734 11.2288 16.7734 11.6245 17.0176 11.8687L18.1208 12.9719C18.2429 13.094 18.4028 13.155 18.5627 13.155C18.7227 13.155 18.8826 13.094 19.0046 12.9719L20.9407 11.0359C21.1846 10.792 21.1846 10.3962 20.9407 10.1521C20.6965 9.90796 20.3008 9.90796 20.0566 10.1521L18.5627 11.646L17.9014 10.9849Z" fill="#2BA860"/>
</svg>
