<svg width="32" height="32" viewBox="0 0 32 32" fill="none" xmlns="http://www.w3.org/2000/svg">
<path d="M15.9998 18.951C12.6408 18.951 9.90808 21.6838 9.90808 25.0428C9.90808 26.951 10.7903 28.6568 12.168 29.7746C12.1941 29.7995 12.2223 29.8222 12.2526 29.8424C13.2868 30.6516 14.588 31.1345 15.9998 31.1345C17.4117 31.1345 18.7128 30.6516 19.747 29.8424C19.7774 29.8222 19.8056 29.7995 19.8317 29.7746C21.2093 28.6568 22.0916 26.951 22.0916 25.0428C22.0916 21.6837 19.3588 18.951 15.9998 18.951ZM15.9998 29.8845C15.0118 29.8845 14.0922 29.5864 13.3254 29.0762C13.7364 28.0204 14.8024 27.2885 15.9998 27.2885C17.1973 27.2885 18.2633 28.0204 18.6743 29.0762C17.9074 29.5864 16.9879 29.8845 15.9998 29.8845ZM14.8988 25.0427C14.8988 24.4936 15.3455 24.0469 15.8946 24.0469C16.4437 24.0469 16.8904 24.4936 16.8904 25.0427C16.8904 25.5918 16.4437 26.0385 15.8946 26.0385C15.3455 26.0385 14.8988 25.5918 14.8988 25.0427ZM19.6527 28.2153C19.2255 27.4091 18.5255 26.768 17.6855 26.3959C17.9708 26.0193 18.1403 25.5505 18.1403 25.0428C18.1403 23.8044 17.1329 22.7969 15.8945 22.7969C14.6562 22.7969 13.6488 23.8044 13.6488 25.0428C13.6488 25.5834 13.8408 26.0799 14.1602 26.4679C13.3888 26.8479 12.7478 27.4589 12.347 28.2154C11.6073 27.3649 11.158 26.2557 11.158 25.0428C11.158 22.373 13.33 20.201 15.9998 20.201C18.6695 20.201 20.8415 22.373 20.8415 25.0428C20.8416 26.2556 20.3923 27.3649 19.6527 28.2153Z" fill="#2BA860"/>
<path d="M6.09175 0.865448C2.73275 0.865448 0 3.59826 0 6.95726C0 8.86557 0.88225 10.5714 2.26 11.6892C2.286 11.714 2.31419 11.7366 2.34444 11.7568C3.37863 12.5661 4.67981 13.049 6.09175 13.049C7.50369 13.049 8.80488 12.566 9.83906 11.7568C9.86931 11.7366 9.89744 11.714 9.92344 11.6892C11.3012 10.5714 12.1835 8.86551 12.1835 6.9572C12.1835 3.5982 9.45075 0.865448 6.09175 0.865448ZM6.09175 11.7991C5.10369 11.799 4.18419 11.5009 3.41731 10.9908C3.82831 9.93501 4.89431 9.20307 6.09175 9.20307C7.28919 9.20307 8.35519 9.93501 8.76619 10.9908C7.99931 11.5009 7.07987 11.7991 6.09175 11.7991ZM4.99069 6.95732C4.99069 6.40826 5.43737 5.96151 5.9865 5.96151C6.53562 5.96151 6.98231 6.4082 6.98231 6.95732C6.98231 7.50645 6.53556 7.95307 5.9865 7.95307C5.43744 7.95307 4.99069 7.50639 4.99069 6.95732ZM9.74456 10.1298C9.31744 9.32357 8.61744 8.68257 7.77744 8.31039C8.06269 7.93382 8.23225 7.46501 8.23225 6.95726C8.23225 5.71895 7.22481 4.71145 5.98644 4.71145C4.74806 4.71145 3.74062 5.71889 3.74062 6.95726C3.74062 7.49782 3.93269 7.99439 4.25206 8.38239C3.48062 8.76239 2.83962 9.37339 2.43887 10.1299C1.69931 9.27945 1.25 8.1702 1.25 6.95726C1.25 4.28751 3.422 2.11551 6.09175 2.11551C8.7615 2.11551 10.9335 4.28751 10.9335 6.95726C10.9335 8.17014 10.4842 9.27939 9.74456 10.1298Z" fill="#2BA860"/>
<path d="M25.9078 0.865479C22.5488 0.865479 19.816 3.59823 19.816 6.95723C19.816 8.8656 20.6984 10.5715 22.0762 11.6893C22.1021 11.714 22.1302 11.7366 22.1603 11.7567C23.1945 12.566 24.4958 13.049 25.9077 13.049C27.3196 13.049 28.6208 12.566 29.655 11.7568C29.6853 11.7366 29.7135 11.714 29.7395 11.6892C31.1173 10.5714 31.9995 8.86554 31.9995 6.95723C31.9995 3.59823 29.2668 0.865479 25.9078 0.865479ZM25.9078 11.799C24.9197 11.799 24.0002 11.5009 23.2333 10.9907C23.6443 9.93498 24.7103 9.20304 25.9078 9.20304C27.1053 9.20304 28.1712 9.93498 28.5822 10.9907C27.8153 11.5009 26.8958 11.799 25.9078 11.799ZM24.8067 6.95729C24.8067 6.40823 25.2534 5.96148 25.8025 5.96148C26.3516 5.96148 26.7983 6.40817 26.7983 6.95729C26.7983 7.50642 26.3516 7.95304 25.8025 7.95304C25.2535 7.95304 24.8067 7.50635 24.8067 6.95729ZM29.5606 10.1298C29.1334 9.32354 28.4335 8.68248 27.5935 8.31035C27.8787 7.93379 28.0483 7.46498 28.0483 6.95723C28.0483 5.71892 27.0408 4.71142 25.8025 4.71142C24.5642 4.71142 23.5567 5.71885 23.5567 6.95723C23.5567 7.49779 23.7488 7.99435 24.0682 8.38229C23.2967 8.76229 22.6557 9.37329 22.2549 10.1298C21.5153 9.27942 21.066 8.17017 21.066 6.95723C21.066 4.28748 23.238 2.11548 25.9077 2.11548C28.5775 2.11548 30.7495 4.28748 30.7495 6.95723C30.7495 8.1701 30.3002 9.27935 29.5606 10.1298Z" fill="#2BA860"/>
<path d="M8.81129 22.2147C8.80873 22.2125 8.80598 22.2101 8.80373 22.2082C8.54023 21.9853 8.14586 22.0181 7.92292 22.2816C7.70142 22.5433 7.73242 22.9342 7.99111 23.1579C7.99367 23.1601 7.99642 23.1626 7.99867 23.1644C8.11604 23.2638 8.25942 23.3123 8.4021 23.3123C8.5796 23.3123 8.75592 23.2371 8.87954 23.091C9.10092 22.8293 9.06998 22.4384 8.81129 22.2147Z" fill="#2BA860"/>
<path d="M7.59128 20.9612C7.59003 20.9596 7.58478 20.9534 7.58353 20.9519C7.36159 20.6886 6.96947 20.6556 6.70547 20.8766C6.44141 21.0976 6.40684 21.4917 6.62697 21.7565L6.62797 21.7578C6.75159 21.9073 6.93003 21.9845 7.10997 21.9845C7.25028 21.9845 7.39134 21.9375 7.5079 21.8411C7.7739 21.6211 7.81128 21.2272 7.59128 20.9612Z" fill="#2BA860"/>
<path d="M6.57854 19.5279C6.57723 19.5256 6.57273 19.5181 6.57136 19.5158C6.39298 19.2202 6.00804 19.1239 5.71254 19.3023C5.41698 19.4807 5.32123 19.8636 5.49954 20.159L5.50017 20.16C5.61648 20.3585 5.82536 20.469 6.03992 20.469C6.14729 20.469 6.25611 20.4414 6.35542 20.3831C6.65323 20.2086 6.75311 19.8257 6.57854 19.5279Z" fill="#2BA860"/>
<path d="M5.28247 16.269C5.20972 15.9315 4.87734 15.7168 4.53991 15.7896C4.20247 15.8623 3.98784 16.1947 4.06053 16.5322C4.06103 16.5345 4.06291 16.5428 4.06341 16.5451C4.12934 16.8352 4.38716 17.0322 4.67259 17.0322C4.71828 17.0321 4.76484 17.027 4.81141 17.0165C5.14797 16.94 5.35897 16.6055 5.28247 16.269Z" fill="#2BA860"/>
<path d="M5.79979 17.9489C5.79935 17.9478 5.79667 17.941 5.79623 17.94C5.66717 17.62 5.30342 17.4654 4.98335 17.5942C4.66329 17.723 4.50829 18.0872 4.63691 18.4074L4.63798 18.41C4.73529 18.6552 4.97042 18.8046 5.2191 18.8046C5.29579 18.8046 5.37385 18.7904 5.44948 18.7604C5.77023 18.633 5.9271 18.2697 5.79979 17.9489Z" fill="#2BA860"/>
<path d="M24.0774 22.2816C23.8544 22.0181 23.4601 21.9853 23.1966 22.2082C23.1944 22.21 23.1916 22.2124 23.1891 22.2146C22.9302 22.4383 22.8993 22.8292 23.1208 23.091C23.2444 23.2371 23.4207 23.3123 23.5982 23.3123C23.7409 23.3123 23.8842 23.2637 24.0017 23.1644C24.0039 23.1626 24.0066 23.1602 24.0091 23.1581C24.268 22.9344 24.2989 22.5434 24.0774 22.2816Z" fill="#2BA860"/>
<path d="M27.0163 17.5941C26.696 17.4649 26.332 17.6198 26.2029 17.94C26.2025 17.9411 26.1998 17.9479 26.1993 17.9489C26.0723 18.2692 26.2294 18.6289 26.5493 18.7569C26.6248 18.7871 26.7027 18.8013 26.7794 18.8013C27.0279 18.8013 27.2638 18.6516 27.3622 18.4074C27.4913 18.0873 27.3364 17.7231 27.0163 17.5941Z" fill="#2BA860"/>
<path d="M25.2964 20.8769C25.0325 20.6544 24.6382 20.688 24.4157 20.9519C24.4144 20.9534 24.4092 20.9597 24.4079 20.9612C24.1887 21.2263 24.2269 21.6164 24.491 21.8369C24.6072 21.9339 24.7488 21.9812 24.8897 21.9812C25.0689 21.9812 25.2472 21.9049 25.3713 21.7576C25.5938 21.4937 25.5603 21.0994 25.2964 20.8769Z" fill="#2BA860"/>
<path d="M27.4628 15.7918C27.1269 15.7176 26.7938 15.9309 26.7183 16.2666L26.7179 16.2679C26.6414 16.6046 26.8523 16.9394 27.1889 17.0159C27.2355 17.0265 27.2821 17.0316 27.328 17.0316C27.6133 17.0316 27.871 16.8349 27.9369 16.5449C27.9374 16.5426 27.9393 16.5343 27.9398 16.532C28.0122 16.1958 27.7988 15.8658 27.4628 15.7918Z" fill="#2BA860"/>
<path d="M26.2873 19.3036C25.9918 19.1253 25.6077 19.2203 25.4293 19.5158C25.4279 19.5181 25.4234 19.5257 25.4221 19.5279C25.2475 19.8258 25.347 20.2094 25.6448 20.3839C25.7443 20.4423 25.8533 20.4701 25.9608 20.4701C26.175 20.4701 26.3833 20.3599 26.4996 20.1616C26.6779 19.8661 26.5828 19.4819 26.2873 19.3036Z" fill="#2BA860"/>
<path d="M27.6235 13.9413C27.2783 13.9215 26.984 14.1864 26.9645 14.531C26.9645 14.5311 26.9645 14.5329 26.9645 14.5331C26.9453 14.8777 27.2093 15.171 27.5539 15.1902C27.5657 15.1908 27.5774 15.1912 27.589 15.1912C27.9184 15.1912 28.1942 14.9321 28.2127 14.5992C28.2319 14.2546 27.9681 13.9605 27.6235 13.9413Z" fill="#2BA860"/>
<path d="M19.8887 1.99503L19.8828 1.99309C19.5542 1.88684 19.202 2.06721 19.0959 2.39565C18.9897 2.72409 19.17 3.0764 19.4985 3.18253L19.5044 3.18446C19.5683 3.20509 19.633 3.2149 19.6966 3.2149C19.9605 3.2149 20.2058 3.04646 20.2913 2.7819C20.3974 2.45346 20.2171 2.10115 19.8887 1.99503Z" fill="#2BA860"/>
<path d="M17.9679 1.54386L17.9514 1.54129C17.6097 1.49111 17.2903 1.72686 17.24 2.06836C17.1899 2.40986 17.424 2.72705 17.7655 2.7773C17.7997 2.78292 17.8338 2.78567 17.8675 2.78567C18.1681 2.78567 18.4332 2.56817 18.4834 2.26186C18.5393 1.92123 18.3085 1.5998 17.9679 1.54386Z" fill="#2BA860"/>
<path d="M15.9926 1.4026L15.9771 1.40273C15.632 1.40785 15.3548 1.69173 15.3599 2.03685C15.3649 2.37892 15.6423 2.65267 15.9832 2.65267C15.9863 2.65267 15.9894 2.65267 15.9926 2.65261C16.3377 2.65261 16.6175 2.37279 16.6175 2.0276C16.6175 1.68242 16.3377 1.4026 15.9926 1.4026Z" fill="#2BA860"/>
<path d="M12.8813 2.41481C12.7812 2.08444 12.432 1.89781 12.1019 1.99794L12.0933 2.00056C11.7634 2.10206 11.58 2.45125 11.6815 2.78119C11.7642 3.04969 12.0125 3.222 12.28 3.222C12.341 3.222 12.4031 3.213 12.4644 3.19419C12.7948 3.09406 12.9814 2.74512 12.8813 2.41481Z" fill="#2BA860"/>
<path d="M14.7373 2.09206C14.6822 1.75131 14.3625 1.51943 14.0218 1.57468L14.1129 2.19306L14.0206 1.57487C13.6793 1.62581 13.4438 1.94387 13.4947 2.28531C13.541 2.59543 13.8077 2.81812 14.1121 2.81812C14.1428 2.81812 14.1739 2.81587 14.2051 2.81119C14.2077 2.81081 14.2163 2.80944 14.2188 2.80906C14.5596 2.75394 14.7925 2.43281 14.7373 2.09206Z" fill="#2BA860"/>
<path d="M5.02197 14.395C4.94922 14.0575 4.61685 13.8429 4.27941 13.9156C3.94197 13.9883 3.72735 14.3207 3.80003 14.6582C3.80053 14.6605 3.80241 14.6688 3.80291 14.6711C3.86885 14.9612 4.12666 15.1582 4.4121 15.1582C4.45778 15.1582 4.50435 15.153 4.55091 15.1425C4.88747 15.066 5.09847 14.7315 5.02197 14.395Z" fill="#2BA860"/>
</svg>
