<svg width="32" height="20" viewBox="0 0 32 20" fill="none" xmlns="http://www.w3.org/2000/svg">
<path d="M2.5288 19.5839C2.65087 19.7059 2.81079 19.767 2.9707 19.767C3.13061 19.767 3.29052 19.7059 3.41259 19.5839L12.8725 10.1242L18.5996 15.8515C18.7168 15.9686 18.8759 16.0346 19.0415 16.0346C19.2072 16.0346 19.3662 15.9686 19.4836 15.8515L22.8054 12.5294C23.0495 12.2855 23.0495 11.8898 22.8054 11.6457C22.5612 11.4015 22.1657 11.4015 21.9216 11.6457L19.0415 14.5255L13.3144 8.79825C13.197 8.68106 13.0381 8.61515 12.8725 8.61515C12.7068 8.61515 12.5478 8.68106 12.4304 8.79825L2.9707 18.2582L1.50879 16.7963L12.8725 5.43278L18.5998 11.1601C18.717 11.2772 18.8759 11.3432 19.0417 11.3432C19.2075 11.3432 19.3664 11.2772 19.4836 11.1601L27.0314 3.61198C27.2756 3.36809 27.2756 2.97234 27.0314 2.72819L26.8012 2.49773L30.4909 1.5092L29.5024 5.19889L29.3771 5.07389C29.2599 4.95671 29.101 4.89079 28.9352 4.89079C28.7695 4.89079 28.6105 4.95671 28.4933 5.07389L25.4572 8.11002C25.2131 8.35416 25.2131 8.74991 25.4572 8.99405C25.7014 9.23795 26.0969 9.23795 26.3413 8.99405L28.9355 6.39982L29.384 6.8483C29.5419 7.00602 29.7719 7.06803 29.9877 7.01017C30.2033 6.95231 30.3718 6.78385 30.4296 6.56827L31.9787 0.787037C32.0366 0.571217 31.9748 0.341237 31.8168 0.183279C31.6591 0.02532 31.4289 -0.0362033 31.2133 0.0214137L25.4321 1.57048C25.2165 1.62834 25.048 1.7968 24.9902 2.01262C24.9323 2.2282 24.9941 2.45842 25.1518 2.61613L25.7058 3.17009L19.0417 9.83414L13.3144 4.10685C13.0705 3.86296 12.6748 3.86271 12.4306 4.10685L0.183105 16.3544C-0.061035 16.5985 -0.061035 16.9943 0.183105 17.2384L2.5288 19.5839Z" fill="#2BA860"/>
</svg>
