<svg width="32" height="21" viewBox="0 0 32 21" fill="none" xmlns="http://www.w3.org/2000/svg">
<path d="M31.3749 19.75H30.7499V0.854247C30.7499 0.509033 30.4701 0.229248 30.1249 0.229248H26.6249C26.2797 0.229248 25.9999 0.509033 25.9999 0.854247V19.75H24.5624V8.31248C24.5624 7.96751 24.2827 7.68748 23.9374 7.68748H20.4375C20.0922 7.68748 19.8125 7.96751 19.8125 8.31248V19.75H18.375V11.625C18.375 11.28 18.0952 11 17.75 11H14.25C13.9048 11 13.625 11.28 13.625 11.625V19.75H12.1875V8.31248C12.1875 7.96751 11.9077 7.68748 11.5625 7.68748H8.06248C7.71727 7.68748 7.43748 7.96751 7.43748 8.31248V19.75H5.99999V14.0207C5.99999 13.6758 5.7202 13.3957 5.37499 13.3957H1.875C1.52978 13.3957 1.25 13.6758 1.25 14.0207V19.75H0.624999C0.279785 19.75 0 20.03 0 20.375C0 20.7202 0.279785 21 0.624999 21H31.3749C31.7201 21 31.9999 20.7202 31.9999 20.375C31.9999 20.03 31.7201 19.75 31.3749 19.75ZM2.49999 19.75V14.6457H4.74999V19.75H2.49999ZM8.68748 19.75V8.93748H10.9375V19.75H8.68748ZM14.875 19.75V12.25H17.125V19.75H14.875ZM21.0625 19.75V8.93748H23.3125V19.75H21.0625ZM27.2499 19.75V1.47925H29.4999V19.75H27.2499Z" fill="#2BA860"/>
</svg>
