<svg width="16" height="20" viewBox="0 0 16 20" fill="none" xmlns="http://www.w3.org/2000/svg">
<path d="M14.0005 11.18V8C13.9991 6.58312 13.4963 5.21247 12.5812 4.13077C11.666 3.04908 10.3976 2.32615 9.00055 2.09V1C9.00055 0.734784 8.89519 0.48043 8.70766 0.292893C8.52012 0.105357 8.26577 0 8.00055 0C7.73533 0 7.48098 0.105357 7.29344 0.292893C7.10591 0.48043 7.00055 0.734784 7.00055 1V2.09C5.60349 2.32615 4.33507 3.04908 3.41993 4.13077C2.5048 5.21247 2.00199 6.58312 2.00055 8V11.18C1.417 11.3863 0.911548 11.7681 0.553488 12.2729C0.195428 12.7778 0.00228883 13.3811 0.000549316 14V16C0.000549316 16.2652 0.105906 16.5196 0.293443 16.7071C0.480979 16.8946 0.735333 17 1.00055 17H4.14055C4.37083 17.8474 4.87355 18.5954 5.57115 19.1287C6.26874 19.6621 7.12245 19.951 8.00055 19.951C8.87865 19.951 9.73236 19.6621 10.43 19.1287C11.1275 18.5954 11.6303 17.8474 11.8605 17H15.0005C15.2658 17 15.5201 16.8946 15.7077 16.7071C15.8952 16.5196 16.0005 16.2652 16.0005 16V14C15.9988 13.3811 15.8057 12.7778 15.4476 12.2729C15.0896 11.7681 14.5841 11.3863 14.0005 11.18ZM4.00055 8C4.00055 6.93913 4.42198 5.92172 5.17212 5.17157C5.92227 4.42143 6.93968 4 8.00055 4C9.06142 4 10.0788 4.42143 10.829 5.17157C11.5791 5.92172 12.0005 6.93913 12.0005 8V11H4.00055V8ZM8.00055 18C7.65152 17.9979 7.30912 17.9045 7.00738 17.7291C6.70564 17.5536 6.45506 17.3023 6.28055 17H9.72055C9.54604 17.3023 9.29546 17.5536 8.99372 17.7291C8.69198 17.9045 8.34958 17.9979 8.00055 18ZM14.0005 15H2.00055V14C2.00055 13.7348 2.10591 13.4804 2.29344 13.2929C2.48098 13.1054 2.73533 13 3.00055 13H13.0005C13.2658 13 13.5201 13.1054 13.7077 13.2929C13.8952 13.4804 14.0005 13.7348 14.0005 14V15Z" fill="white"/>
</svg>
