<svg width="22" height="20" viewBox="0 0 22 20" fill="none" xmlns="http://www.w3.org/2000/svg">
<path d="M11.0005 -2.04867e-05C9.4684 -0.0027924 7.95614 0.346518 6.58045 1.02095C5.20477 1.69538 4.00244 2.6769 3.06629 3.88974C2.13013 5.10258 1.48518 6.51432 1.18121 8.01597C0.877239 9.51763 0.922382 11.0691 1.31315 12.5505C1.70392 14.0319 2.42987 15.4038 3.43497 16.5601C4.44006 17.7165 5.69742 18.6264 7.11 19.2197C8.52257 19.813 10.0526 20.0738 11.5819 19.982C13.1113 19.8901 14.5991 19.4481 15.9305 18.69H16.0505C17.9758 17.594 19.4826 15.8897 20.3345 13.8447C21.1863 11.7997 21.335 9.52967 20.7571 7.39101C20.1793 5.25235 18.9076 3.36611 17.1417 2.02839C15.3758 0.690673 13.2158 -0.022796 11.0005 -2.04867e-05ZM12.0005 2.06998C13.7605 2.29317 15.3964 3.09507 16.6509 4.34957C17.9054 5.60406 18.7073 7.23996 18.9305 8.99998H12.0005V2.06998ZM11.0005 18C8.97502 17.9862 7.03017 17.2045 5.55845 15.8128C4.08673 14.4211 3.19772 12.5229 3.07081 10.5014C2.94391 8.47981 3.58857 6.48537 4.87469 4.92054C6.16082 3.35571 7.99265 2.33699 10.0005 2.06998V9.99998C10.0045 10.1197 10.0281 10.238 10.0705 10.35V10.5L14.0705 17.37C13.1003 17.7853 12.0559 17.9996 11.0005 18ZM15.8305 16.36L12.7305 11H18.9305C18.7959 12.0546 18.4524 13.0717 17.9201 13.9921C17.3878 14.9124 16.6775 15.7174 15.8305 16.36Z" fill="#6CB61E"/>
</svg>
