<svg width="18" height="20" viewBox="0 0 18 20" fill="none" xmlns="http://www.w3.org/2000/svg">
<path d="M17.1106 15.49L12.0006 6.73V2H13.0006C13.2658 2 13.5201 1.89464 13.7077 1.70711C13.8952 1.51957 14.0006 1.26522 14.0006 1C14.0006 0.734784 13.8952 0.48043 13.7077 0.292893C13.5201 0.105357 13.2658 0 13.0006 0H5.00057C4.73536 0 4.481 0.105357 4.29347 0.292893C4.10593 0.48043 4.00057 0.734784 4.00057 1C4.00057 1.26522 4.10593 1.51957 4.29347 1.70711C4.481 1.89464 4.73536 2 5.00057 2H6.00057V6.73L0.890573 15.49C0.625116 15.9457 0.484488 16.4634 0.482863 16.9908C0.481239 17.5182 0.618676 18.0367 0.88132 18.494C1.14396 18.9514 1.52253 19.3314 1.97887 19.5958C2.4352 19.8602 2.95318 19.9996 3.48057 20H14.4806C15.008 19.9996 15.5259 19.8602 15.9823 19.5958C16.4386 19.3314 16.8172 18.9514 17.0798 18.494C17.3425 18.0367 17.4799 17.5182 17.4783 16.9908C17.4767 16.4634 17.336 15.9457 17.0706 15.49H17.1106ZM7.86057 7.49C7.94877 7.3415 7.99701 7.17268 8.00057 7V2H10.0006V7C10.0024 7.17609 10.0507 7.34857 10.1406 7.5L11.0006 9H7.00057L7.86057 7.49ZM15.3806 17.49C15.2933 17.6411 15.168 17.7668 15.0172 17.8545C14.8663 17.9422 14.6951 17.9889 14.5206 17.99H3.52057C3.34606 17.9889 3.17486 17.9422 3.02399 17.8545C2.87312 17.7668 2.74783 17.6411 2.66057 17.49C2.5728 17.338 2.5266 17.1655 2.5266 16.99C2.5266 16.8145 2.5728 16.642 2.66057 16.49L5.83057 11H12.1806L15.3806 16.5C15.4683 16.652 15.5145 16.8245 15.5145 17C15.5145 17.1755 15.4683 17.348 15.3806 17.5V17.49ZM7.00057 13C6.80279 13 6.60945 13.0586 6.445 13.1685C6.28055 13.2784 6.15238 13.4346 6.07669 13.6173C6.00101 13.8 5.9812 14.0011 6.01979 14.1951C6.05837 14.3891 6.15361 14.5673 6.29347 14.7071C6.43332 14.847 6.6115 14.9422 6.80548 14.9808C6.99946 15.0194 7.20053 14.9996 7.38326 14.9239C7.56598 14.8482 7.72216 14.72 7.83204 14.5556C7.94192 14.3911 8.00057 14.1978 8.00057 14C8.00057 13.7348 7.89522 13.4804 7.70768 13.2929C7.52014 13.1054 7.26579 13 7.00057 13ZM11.0006 14C10.8028 14 10.6095 14.0586 10.445 14.1685C10.2806 14.2784 10.1524 14.4346 10.0767 14.6173C10.001 14.8 9.9812 15.0011 10.0198 15.1951C10.0584 15.3891 10.1536 15.5673 10.2935 15.7071C10.4333 15.847 10.6115 15.9422 10.8055 15.9808C10.9995 16.0194 11.2005 15.9996 11.3833 15.9239C11.566 15.8482 11.7222 15.72 11.832 15.5556C11.9419 15.3911 12.0006 15.1978 12.0006 15C12.0006 14.7348 11.8952 14.4804 11.7077 14.2929C11.5201 14.1054 11.2658 14 11.0006 14Z" fill="white"/>
</svg>
