<svg width="20" height="20" viewBox="0 0 20 20" fill="none" xmlns="http://www.w3.org/2000/svg">
<path fill-rule="evenodd" clip-rule="evenodd" d="M3.00055 0H17.0005C17.7962 0 18.5593 0.316071 19.1219 0.87868C19.6845 1.44129 20.0005 2.20435 20.0005 3V13C20.0005 13.7956 19.6845 14.5587 19.1219 15.1213C18.5593 15.6839 17.7962 16 17.0005 16H14.4105L15.0005 17C15.1761 17.304 15.2685 17.6489 15.2685 18C15.2685 18.3511 15.1761 18.696 15.0005 19C14.8252 19.3037 14.573 19.556 14.2694 19.7315C13.9657 19.9071 13.6213 19.9996 13.2705 20H6.81055C6.45644 20.0032 6.10783 19.9123 5.80037 19.7366C5.4929 19.5609 5.2376 19.3067 5.06055 19C4.88501 18.696 4.7926 18.3511 4.7926 18C4.7926 17.6489 4.88501 17.304 5.06055 17L5.64055 16H3.00055C2.2049 16 1.44184 15.6839 0.879229 15.1213C0.31662 14.5587 0.000549316 13.7956 0.000549316 13V3C0.000549316 2.20435 0.31662 1.44129 0.879229 0.87868C1.44184 0.316071 2.2049 0 3.00055 0ZM12.0005 16H8.00055L6.77055 18H13.2005L12.0005 16ZM17.7077 13.7071C17.8952 13.5196 18.0005 13.2652 18.0005 13V12H2.00055V13C2.00055 13.2652 2.10591 13.5196 2.29344 13.7071C2.48098 13.8946 2.73533 14 3.00055 14H17.0005C17.2658 14 17.5201 13.8946 17.7077 13.7071ZM2.00055 10H18.0005V3C18.0005 2.73478 17.8952 2.48043 17.7077 2.29289C17.5201 2.10536 17.2658 2 17.0005 2H3.00055C2.73533 2 2.48098 2.10536 2.29344 2.29289C2.10591 2.48043 2.00055 2.73478 2.00055 3V10ZM7.00055 6H16.0005V4H7.00055V6ZM16.0005 9H7.00055V7H16.0005V9ZM4.00055 4L4.00055 9H6.00055V4H4.00055Z" fill="white"/>
</svg>
