<svg width="20" height="20" viewBox="0 0 20 20" fill="none" xmlns="http://www.w3.org/2000/svg">
<path d="M19.0005 16H12.8205C12.6712 15.5806 12.4304 15.1997 12.1156 14.8849C11.8009 14.5701 11.4199 14.3293 11.0005 14.18V12H14.6705C15.2877 11.9974 15.8788 11.7511 16.3152 11.3147C16.7516 10.8783 16.9979 10.2872 17.0005 9.67001V4.33001C16.9979 3.71287 16.7516 3.12175 16.3152 2.68536C15.8788 2.24897 15.2877 2.00264 14.6705 2.00001H10.6705L10.5405 1.59001C10.3863 1.13395 10.0952 0.736547 9.70688 0.452003C9.31854 0.167458 8.85188 0.00961936 8.37055 9.4885e-06H5.37055C5.06158 -0.00395469 4.75489 0.0533131 4.46817 0.168507C4.18145 0.283702 3.92038 0.454541 3.70004 0.671165C3.4797 0.88779 3.30444 1.14591 3.18438 1.43063C3.06432 1.71534 3.00184 2.02102 3.00055 2.33001V9.67001C3.00318 10.2872 3.24951 10.8783 3.6859 11.3147C4.12229 11.7511 4.71341 11.9974 5.33055 12H9.00055V14.18C8.58115 14.3293 8.20024 14.5701 7.88545 14.8849C7.57066 15.1997 7.32987 15.5806 7.18055 16H1.00055C0.735333 16 0.480979 16.1054 0.293442 16.2929C0.105906 16.4804 0.000549316 16.7348 0.000549316 17C0.000549316 17.2652 0.105906 17.5196 0.293442 17.7071C0.480979 17.8947 0.735333 18 1.00055 18H7.18055C7.39075 18.5792 7.77418 19.0795 8.27871 19.4332C8.78325 19.7868 9.38443 19.9765 10.0005 19.9765C10.6167 19.9765 11.2178 19.7868 11.7224 19.4332C12.2269 19.0795 12.6103 18.5792 12.8205 18H19.0005C19.2658 18 19.5201 17.8947 19.7077 17.7071C19.8952 17.5196 20.0005 17.2652 20.0005 17C20.0005 16.7348 19.8952 16.4804 19.7077 16.2929C19.5201 16.1054 19.2658 16 19.0005 16ZM5.33055 10C5.24303 10 5.15909 9.96524 5.0972 9.90335C5.03532 9.84147 5.00055 9.75753 5.00055 9.67001V2.33001C5.00055 2.24249 5.03532 2.15855 5.0972 2.09666C5.15909 2.03478 5.24303 2.00001 5.33055 2.00001H8.33055C8.40153 1.99883 8.471 2.02056 8.52865 2.062C8.5863 2.10343 8.62905 2.16235 8.65055 2.23001L9.01055 3.32001C9.07967 3.52528 9.21356 3.70256 9.39209 3.82519C9.57063 3.94782 9.78415 4.00917 10.0005 4.00001H14.6705C14.7581 4.00001 14.842 4.03478 14.9039 4.09666C14.9658 4.15855 15.0005 4.24249 15.0005 4.33001V9.67001C15.0005 9.75753 14.9658 9.84147 14.9039 9.90335C14.842 9.96524 14.7581 10 14.6705 10H5.33055ZM10.0005 18C9.80277 18 9.60943 17.9414 9.44498 17.8315C9.28053 17.7216 9.15236 17.5654 9.07667 17.3827C9.00098 17.2 8.98118 16.9989 9.01976 16.8049C9.05835 16.6109 9.15359 16.4328 9.29344 16.2929C9.4333 16.153 9.61148 16.0578 9.80546 16.0192C9.99944 15.9806 10.2005 16.0004 10.3832 16.0761C10.566 16.1518 10.7221 16.28 10.832 16.4444C10.9419 16.6089 11.0005 16.8022 11.0005 17C11.0005 17.2652 10.8952 17.5196 10.7077 17.7071C10.5201 17.8947 10.2658 18 10.0005 18Z" fill="white"/>
</svg>
