<svg width="20" height="21" viewBox="0 0 20 21" fill="none" xmlns="http://www.w3.org/2000/svg">
<path d="M9.50055 18H3.50055C3.23533 18 2.98098 17.8946 2.79344 17.7071C2.60591 17.5196 2.50055 17.2652 2.50055 17V3C2.50055 2.73478 2.60591 2.48043 2.79344 2.29289C2.98098 2.10536 3.23533 2 3.50055 2H8.50055V5C8.50055 5.79565 8.81662 6.55871 9.37923 7.12132C9.94184 7.68393 10.7049 8 11.5005 8H14.5005V13C14.5005 13.2652 14.6059 13.5196 14.7934 13.7071C14.981 13.8946 15.2353 14 15.5005 14C15.7658 14 16.0201 13.8946 16.2077 13.7071C16.3952 13.5196 16.5005 13.2652 16.5005 13V7V6.94C16.4901 6.84813 16.47 6.75763 16.4405 6.67V6.58C16.3925 6.47718 16.3283 6.38267 16.2505 6.3L10.2505 0.3C10.1679 0.222216 10.0734 0.158081 9.97055 0.11C9.93747 0.104209 9.90363 0.104209 9.87055 0.11C9.77331 0.058003 9.66881 0.020922 9.56055 0H3.50055C2.7049 0 1.94184 0.316071 1.37923 0.87868C0.81662 1.44129 0.500549 2.20435 0.500549 3V17C0.500549 17.7956 0.81662 18.5587 1.37923 19.1213C1.94184 19.6839 2.7049 20 3.50055 20H9.50055C9.76577 20 10.0201 19.8946 10.2077 19.7071C10.3952 19.5196 10.5005 19.2652 10.5005 19C10.5005 18.7348 10.3952 18.4804 10.2077 18.2929C10.0201 18.1054 9.76577 18 9.50055 18ZM10.5005 3.41L13.0905 6H11.5005C11.2353 6 10.981 5.89464 10.7934 5.70711C10.6059 5.51957 10.5005 5.26522 10.5005 5V3.41ZM5.50055 12H11.5005C11.7658 12 12.0201 11.8946 12.2077 11.7071C12.3952 11.5196 12.5005 11.2652 12.5005 11C12.5005 10.7348 12.3952 10.4804 12.2077 10.2929C12.0201 10.1054 11.7658 10 11.5005 10H5.50055C5.23533 10 4.98098 10.1054 4.79344 10.2929C4.60591 10.4804 4.50055 10.7348 4.50055 11C4.50055 11.2652 4.60591 11.5196 4.79344 11.7071C4.98098 11.8946 5.23533 12 5.50055 12ZM9.50055 14H5.50055C5.23533 14 4.98098 14.1054 4.79344 14.2929C4.60591 14.4804 4.50055 14.7348 4.50055 15C4.50055 15.2652 4.60591 15.5196 4.79344 15.7071C4.98098 15.8946 5.23533 16 5.50055 16H9.50055C9.76577 16 10.0201 15.8946 10.2077 15.7071C10.3952 15.5196 10.5005 15.2652 10.5005 15C10.5005 14.7348 10.3952 14.4804 10.2077 14.2929C10.0201 14.1054 9.76577 14 9.50055 14ZM5.50055 8H6.50055C6.76577 8 7.02012 7.89464 7.20766 7.70711C7.39519 7.51957 7.50055 7.26522 7.50055 7C7.50055 6.73478 7.39519 6.48043 7.20766 6.29289C7.02012 6.10536 6.76577 6 6.50055 6H5.50055C5.23533 6 4.98098 6.10536 4.79344 6.29289C4.60591 6.48043 4.50055 6.73478 4.50055 7C4.50055 7.26522 4.60591 7.51957 4.79344 7.70711C4.98098 7.89464 5.23533 8 5.50055 8ZM19.2105 14.29C19.1176 14.1963 19.007 14.1219 18.8851 14.0711C18.7633 14.0203 18.6326 13.9942 18.5005 13.9942C18.3685 13.9942 18.2378 14.0203 18.116 14.0711C17.9941 14.1219 17.8835 14.1963 17.7906 14.29L14.5005 17.59L13.2105 16.29C13.1173 16.1968 13.0066 16.1228 12.8848 16.0723C12.763 16.0219 12.6324 15.9959 12.5005 15.9959C12.3687 15.9959 12.2381 16.0219 12.1163 16.0723C11.9945 16.1228 11.8838 16.1968 11.7905 16.29C11.6973 16.3832 11.6233 16.4939 11.5729 16.6158C11.5224 16.7376 11.4965 16.8681 11.4965 17C11.4965 17.1319 11.5224 17.2624 11.5729 17.3842C11.6233 17.5061 11.6973 17.6168 11.7905 17.71L13.7905 19.71C13.8835 19.8037 13.9941 19.8781 14.116 19.9289C14.2378 19.9797 14.3685 20.0058 14.5005 20.0058C14.6326 20.0058 14.7633 19.9797 14.8851 19.9289C15.007 19.8781 15.1176 19.8037 15.2105 19.71L19.2105 15.71C19.3043 15.617 19.3787 15.5064 19.4294 15.3846C19.4802 15.2627 19.5063 15.132 19.5063 15C19.5063 14.868 19.4802 14.7373 19.4294 14.6154C19.3787 14.4936 19.3043 14.383 19.2105 14.29Z" fill="white"/>
</svg>
