<svg width="20" height="20" viewBox="0 0 20 20" fill="none" xmlns="http://www.w3.org/2000/svg">
<path d="M10.0006 0C8.02274 0 6.08934 0.58649 4.44485 1.6853C2.80036 2.78412 1.51863 4.3459 0.761759 6.17317C0.00488216 8.00043 -0.193151 10.0111 0.192701 11.9509C0.578553 13.8907 1.53096 15.6725 2.92949 17.0711C4.32801 18.4696 6.10984 19.422 8.04965 19.8079C9.98946 20.1937 12.0001 19.9957 13.8274 19.2388C15.6546 18.4819 17.2164 17.2002 18.3152 15.5557C19.4141 13.9112 20.0006 11.9778 20.0006 10C20.0006 8.68678 19.7419 7.38642 19.2393 6.17317C18.7368 4.95991 18.0002 3.85752 17.0716 2.92893C16.143 2.00035 15.0406 1.26375 13.8274 0.761205C12.6141 0.258658 11.3138 0 10.0006 0ZM10.0006 18C8.4183 18 6.87158 17.5308 5.55599 16.6518C4.2404 15.7727 3.21502 14.5233 2.60952 13.0615C2.00402 11.5997 1.84559 9.99113 2.15427 8.43928C2.46295 6.88743 3.22488 5.46197 4.3437 4.34315C5.46252 3.22433 6.88798 2.4624 8.43983 2.15372C9.99168 1.84504 11.6002 2.00346 13.062 2.60896C14.5238 3.21447 15.7733 4.23984 16.6523 5.55544C17.5314 6.87103 18.0006 8.41775 18.0006 10C18.0006 12.1217 17.1577 14.1566 15.6574 15.6569C14.1571 17.1571 12.1223 18 10.0006 18ZM14.0006 9H11.0006V6C11.0006 5.73478 10.8952 5.48043 10.7077 5.29289C10.5201 5.10536 10.2658 5 10.0006 5C9.73534 5 9.48098 5.10536 9.29345 5.29289C9.10591 5.48043 9.00055 5.73478 9.00055 6V9H6.00055C5.73534 9 5.48098 9.10536 5.29345 9.29289C5.10591 9.48043 5.00055 9.73478 5.00055 10C5.00055 10.2652 5.10591 10.5196 5.29345 10.7071C5.48098 10.8946 5.73534 11 6.00055 11H9.00055V14C9.00055 14.2652 9.10591 14.5196 9.29345 14.7071C9.48098 14.8946 9.73534 15 10.0006 15C10.2658 15 10.5201 14.8946 10.7077 14.7071C10.8952 14.5196 11.0006 14.2652 11.0006 14V11H14.0006C14.2658 11 14.5201 10.8946 14.7077 10.7071C14.8952 10.5196 15.0006 10.2652 15.0006 10C15.0006 9.73478 14.8952 9.48043 14.7077 9.29289C14.5201 9.10536 14.2658 9 14.0006 9Z" fill="white"/>
</svg>
