<svg aria-hidden="true" style="position: absolute; width: 0; height: 0; overflow: hidden;" version="1.1" xmlns="http://www.w3.org/2000/svg" xmlns:xlink="http://www.w3.org/1999/xlink">
  <defs>
    <!-- <symbol id="logo-icon" viewBox="0 0 51 32">
      <title>logo</title>
      <path fill="$secondary-green-color" d="M0 0h51.2v32h-51.2v-32z"></path>
    </symbol> -->

    <symbol id="icon-arrow_drop_down" viewBox="0 0 24 24">
      <title>arrow_drop_down</title>
      <path fill="#DDE3ED" d="M6.984 9.984h10.031l-5.016 5.016z"></path>
    </symbol>

    <symbol id="bell-icon" viewBox="0 0 26 32">
      <title>bell-icon</title>
      <path class="svg-color" fill="$main-white-color"
      d="M22.401 17.888v-5.088c-0.002-2.267-0.807-4.46-2.271-6.191s-3.494-2.887-5.729-3.265v-1.744c0-0.424-0.169-0.831-0.469-1.131s-0.707-0.469-1.131-0.469c-0.424 0-0.831 0.169-1.131 0.469s-0.469 0.707-0.469 1.131v1.744c-2.235 0.378-4.265 1.535-5.729 3.265s-2.269 3.924-2.271 6.191v5.088c-0.934 0.33-1.742 0.941-2.315 1.749s-0.882 1.773-0.885 2.763v3.2c0 0.424 0.169 0.831 0.469 1.131s0.707 0.469 1.131 0.469h5.024c0.368 1.356 1.173 2.553 2.289 3.406s2.482 1.316 3.887 1.316 2.771-0.462 3.887-1.316c1.116-0.853 1.92-2.050 2.289-3.406h5.024c0.424 0 0.831-0.169 1.132-0.469s0.468-0.707 0.468-1.131v-3.2c-0.003-0.99-0.312-1.956-0.885-2.763s-1.382-1.419-2.315-1.749zM6.401 12.8c0-1.697 0.674-3.325 1.875-4.526s2.828-1.875 4.526-1.875c1.697 0 3.325 0.674 4.526 1.875s1.874 2.828 1.874 4.526v4.8h-12.8v-4.8zM12.801 28.8c-0.558-0.003-1.106-0.153-1.589-0.433s-0.884-0.683-1.163-1.167h5.504c-0.279 0.484-0.68 0.886-1.163 1.167s-1.031 0.43-1.589 0.433zM22.401 24h-19.2v-1.6c0-0.424 0.169-0.831 0.469-1.131s0.707-0.469 1.131-0.469h16c0.424 0 0.831 0.169 1.132 0.469s0.468 0.707 0.468 1.131v1.6z">
      </path>
    </symbol>

    <symbol id="clock-icon" viewBox="0 0 35 32">
      <title>clock-icon</title>
      <path class="svg-color" fill="$main-white-color" style="fill: var(--color2, $main-white-color)" d="M17.601-0c-2.451-0.004-4.871 0.554-7.072 1.634s-4.125 2.65-5.623 4.59c-1.498 1.941-2.53 4.199-3.016 6.602s-0.414 4.885 0.211 7.255c0.625 2.37 1.787 4.565 3.395 6.415s3.62 3.306 5.88 4.255 4.708 1.367 7.155 1.22c2.447-0.147 4.828-0.854 6.958-2.067h0.192c3.080-1.754 5.491-4.48 6.854-7.752s1.601-6.904 0.676-10.326c-0.924-3.422-2.959-6.44-5.785-8.58s-6.281-3.282-9.826-3.245zM19.201 3.312c2.816 0.357 5.433 1.64 7.441 3.647s3.29 4.625 3.647 7.441h-11.088v-11.088zM17.601 28.8c-3.241-0.022-6.353-1.273-8.707-3.5s-3.777-5.264-3.98-8.498c-0.203-3.235 0.828-6.426 2.886-8.929s4.989-4.134 8.201-4.561v12.688c0.006 0.192 0.044 0.381 0.112 0.56v0.24l6.4 10.992c-1.552 0.664-3.223 1.007-4.912 1.008zM25.329 26.176l-4.96-8.576h9.92c-0.215 1.687-0.765 3.315-1.617 4.787s-1.988 2.76-3.343 3.789z"></path>
    </symbol>

    <symbol id="colb-icon" viewBox="0 0 29 32">
      <title>colb-icon</title>
      <path class="svg-color" fill="$main-white-color" style="fill: var(--color1, $main-white-color)" d="M27.377 24.784l-8.176-14.016v-7.568h1.6c0.424 0 0.831-0.169 1.131-0.469s0.469-0.707 0.469-1.131-0.169-0.831-0.469-1.131c-0.3-0.3-0.707-0.469-1.131-0.469h-12.8c-0.424 0-0.831 0.169-1.131 0.469s-0.469 0.707-0.469 1.131c0 0.424 0.169 0.831 0.469 1.131s0.707 0.469 1.131 0.469h1.6v7.568l-8.176 14.016c-0.425 0.729-0.65 1.557-0.652 2.401s0.217 1.673 0.638 2.405c0.42 0.732 1.026 1.34 1.756 1.763s1.559 0.646 2.403 0.647h17.6c0.844-0.001 1.672-0.224 2.403-0.647s1.336-1.031 1.756-1.763c0.42-0.732 0.64-1.561 0.638-2.405s-0.228-1.672-0.652-2.401h0.064zM12.577 11.984c0.141-0.238 0.218-0.508 0.224-0.784v-8h3.2v8c0.003 0.282 0.080 0.558 0.224 0.8l1.376 2.4h-6.4l1.376-2.416zM24.609 27.984c-0.14 0.242-0.34 0.443-0.581 0.583s-0.515 0.215-0.795 0.217h-17.6c-0.279-0.002-0.553-0.076-0.795-0.217s-0.442-0.341-0.581-0.583c-0.14-0.243-0.214-0.519-0.214-0.8s0.074-0.557 0.214-0.8l5.072-8.784h10.16l5.12 8.8c0.14 0.243 0.214 0.519 0.214 0.8s-0.074 0.557-0.214 0.8v-0.016zM11.201 20.8c-0.316 0-0.626 0.094-0.889 0.27s-0.468 0.426-0.589 0.718c-0.121 0.292-0.153 0.614-0.091 0.924s0.214 0.596 0.438 0.819c0.224 0.224 0.509 0.376 0.819 0.438s0.632 0.030 0.924-0.091c0.292-0.121 0.542-0.326 0.718-0.589s0.27-0.572 0.27-0.889c0-0.424-0.169-0.831-0.469-1.131s-0.707-0.469-1.131-0.469zM17.601 22.4c-0.316 0-0.626 0.094-0.889 0.27s-0.468 0.426-0.589 0.718-0.153 0.614-0.091 0.924c0.062 0.31 0.214 0.596 0.438 0.819s0.509 0.376 0.819 0.438 0.632 0.030 0.924-0.091c0.292-0.121 0.542-0.326 0.718-0.589s0.27-0.572 0.27-0.889c0-0.424-0.169-0.831-0.469-1.131s-0.707-0.469-1.131-0.469z"></path>
    </symbol>

    <symbol id="computer-icon" viewBox="0 0 32 32">
      <title>computer-icon</title>
      <path class="svg-color" fill="$main-white-color" d="M4.801 0h22.4c1.273 0 2.494 0.506 3.394 1.406s1.406 2.121 1.406 3.394v16c0 1.273-0.506 2.494-1.406 3.394s-2.121 1.406-3.394 1.406h-4.144l0.944 1.6c0.281 0.486 0.429 1.038 0.429 1.6s-0.148 1.114-0.429 1.6c-0.28 0.486-0.684 0.89-1.17 1.17s-1.037 0.429-1.598 0.43h-10.336c-0.567 0.005-1.124-0.14-1.616-0.421s-0.9-0.688-1.184-1.179c-0.281-0.486-0.429-1.038-0.429-1.6s0.148-1.114 0.429-1.6l0.928-1.6h-4.224c-1.273 0-2.494-0.506-3.394-1.406s-1.406-2.121-1.406-3.394v-16c0-1.273 0.506-2.494 1.406-3.394s2.121-1.406 3.394-1.406zM19.201 25.6h-6.4l-1.968 3.2h10.288l-1.92-3.2zM28.332 21.931c0.3-0.3 0.468-0.707 0.468-1.131v-1.6h-25.6v1.6c0 0.424 0.169 0.831 0.469 1.131s0.707 0.469 1.131 0.469h22.4c0.424 0 0.831-0.169 1.132-0.469zM3.201 16h25.6v-11.2c0-0.424-0.168-0.831-0.468-1.131s-0.707-0.469-1.132-0.469h-22.4c-0.424 0-0.831 0.169-1.131 0.469s-0.469 0.707-0.469 1.131v11.2zM11.201 9.6h14.4v-3.2h-14.4v3.2zM25.601 14.4h-14.4v-3.2h14.4v3.2zM6.401 6.4v8h3.2v-8h-3.2z"></path>
    </symbol>

    <symbol id="folder-icon" viewBox="0 0 32 32">
      <title>folder-icon</title>
      <path class="svg-color" fill="$main-white-color" style="fill: var(--color1, $main-white-color)" d="M30.401 25.6h-9.888c-0.239-0.671-0.624-1.28-1.128-1.784s-1.113-0.889-1.784-1.128v-3.488h5.872c0.988-0.004 1.933-0.398 2.632-1.096s1.092-1.644 1.096-2.631v-8.544c-0.004-0.987-0.398-1.933-1.096-2.631s-1.644-1.092-2.632-1.097h-6.4l-0.208-0.656c-0.247-0.73-0.712-1.366-1.334-1.821s-1.368-0.708-2.138-0.723h-4.8c-0.494-0.006-0.985 0.085-1.444 0.27s-0.876 0.458-1.229 0.804c-0.353 0.347-0.633 0.76-0.825 1.215s-0.292 0.945-0.294 1.439v11.744c0.004 0.987 0.398 1.933 1.097 2.632s1.644 1.092 2.631 1.096h5.872v3.488c-0.671 0.239-1.28 0.624-1.784 1.128s-0.889 1.113-1.128 1.784h-9.888c-0.424 0-0.831 0.169-1.131 0.469s-0.469 0.707-0.469 1.131c0 0.424 0.169 0.831 0.469 1.131s0.707 0.469 1.131 0.469h9.888c0.336 0.927 0.95 1.727 1.757 2.293s1.769 0.869 2.755 0.869c0.986 0 1.948-0.304 2.755-0.869s1.421-1.366 1.757-2.293h9.888c0.424 0 0.831-0.168 1.132-0.469s0.468-0.707 0.468-1.131-0.168-0.831-0.468-1.131c-0.3-0.3-0.707-0.469-1.132-0.469zM8.529 16c-0.14 0-0.274-0.056-0.373-0.155s-0.155-0.233-0.155-0.373v-11.744c0-0.14 0.056-0.274 0.155-0.373s0.233-0.155 0.373-0.155h4.8c0.114-0.002 0.225 0.033 0.317 0.099s0.161 0.161 0.195 0.269l0.576 1.744c0.111 0.328 0.325 0.612 0.61 0.808s0.627 0.294 0.973 0.28h7.472c0.14 0 0.274 0.056 0.373 0.155s0.155 0.233 0.155 0.373v8.544c0 0.14-0.056 0.274-0.155 0.373s-0.233 0.155-0.373 0.155h-14.944zM16.001 28.8c-0.316 0-0.626-0.094-0.889-0.27s-0.468-0.426-0.589-0.718c-0.121-0.292-0.153-0.614-0.091-0.924s0.214-0.595 0.438-0.819c0.224-0.224 0.509-0.376 0.819-0.438s0.632-0.030 0.924 0.091c0.292 0.121 0.542 0.326 0.718 0.589s0.27 0.572 0.27 0.889c0 0.424-0.168 0.831-0.468 1.131s-0.707 0.469-1.132 0.469z"></path>
    </symbol>
    <symbol id="list-icon" viewBox="0 0 30 32">
      <title>list-icon</title>
      <path class="svg-color" fill="$main-white-color" style="fill: var(--color1, $main-white-color)" d="M14.477 27.429h-9.143c-0.404 0-0.792-0.161-1.077-0.446s-0.446-0.673-0.446-1.078v-21.333c0-0.404 0.161-0.792 0.446-1.077s0.673-0.446 1.077-0.446h7.619v4.571c0 1.212 0.482 2.375 1.339 3.232s2.020 1.339 3.232 1.339h4.571v7.619c0 0.404 0.161 0.792 0.446 1.078s0.673 0.446 1.078 0.446c0.404 0 0.792-0.161 1.078-0.446s0.446-0.673 0.446-1.078v-9.234c-0.016-0.14-0.046-0.278-0.091-0.411v-0.137c-0.073-0.157-0.171-0.301-0.29-0.427l-9.143-9.143c-0.126-0.119-0.27-0.216-0.427-0.29-0.050-0.009-0.102-0.009-0.152 0-0.148-0.079-0.307-0.136-0.472-0.168h-9.234c-1.212 0-2.375 0.482-3.232 1.339s-1.339 2.020-1.339 3.232v21.333c0 1.212 0.482 2.375 1.339 3.232s2.020 1.339 3.232 1.339h9.143c0.404 0 0.792-0.161 1.078-0.446s0.446-0.673 0.446-1.078-0.16-0.792-0.446-1.078c-0.286-0.286-0.673-0.446-1.078-0.446zM16.001 5.196l3.947 3.947h-2.423c-0.404 0-0.792-0.161-1.078-0.446s-0.446-0.673-0.446-1.077v-2.423zM8.382 18.286h9.143c0.404 0 0.792-0.161 1.078-0.446s0.446-0.673 0.446-1.078-0.16-0.792-0.446-1.078c-0.286-0.286-0.673-0.446-1.078-0.446h-9.143c-0.404 0-0.792 0.161-1.077 0.446s-0.446 0.673-0.446 1.078c0 0.404 0.161 0.792 0.446 1.078s0.673 0.446 1.077 0.446zM14.477 21.333h-6.095c-0.404 0-0.792 0.161-1.077 0.446s-0.446 0.673-0.446 1.078c0 0.404 0.161 0.792 0.446 1.078s0.673 0.446 1.077 0.446h6.095c0.404 0 0.792-0.161 1.078-0.446s0.446-0.673 0.446-1.078-0.16-0.792-0.446-1.078c-0.286-0.286-0.673-0.446-1.078-0.446zM8.382 12.19h1.524c0.404 0 0.792-0.161 1.078-0.446s0.446-0.673 0.446-1.078c0-0.404-0.161-0.792-0.446-1.078s-0.673-0.446-1.078-0.446h-1.524c-0.404 0-0.792 0.161-1.077 0.446s-0.446 0.673-0.446 1.078c0 0.404 0.161 0.792 0.446 1.078s0.673 0.446 1.077 0.446zM29.273 21.775c-0.142-0.143-0.31-0.256-0.496-0.334s-0.385-0.117-0.586-0.117c-0.201 0-0.4 0.040-0.586 0.117s-0.354 0.191-0.496 0.334l-5.014 5.029-1.966-1.981c-0.142-0.142-0.311-0.255-0.496-0.332s-0.385-0.116-0.586-0.116c-0.201 0-0.4 0.040-0.585 0.116s-0.354 0.19-0.496 0.332c-0.142 0.142-0.255 0.311-0.332 0.496s-0.116 0.384-0.116 0.585 0.039 0.4 0.116 0.585c0.077 0.186 0.19 0.354 0.332 0.496l3.048 3.048c0.142 0.143 0.31 0.256 0.496 0.334s0.385 0.117 0.586 0.117c0.201 0 0.4-0.040 0.586-0.117s0.354-0.191 0.496-0.334l6.095-6.095c0.143-0.142 0.256-0.31 0.334-0.496s0.117-0.385 0.117-0.586-0.040-0.4-0.117-0.586c-0.077-0.186-0.191-0.354-0.334-0.496z"></path>
    </symbol>
    <symbol id="plus-icon" viewBox="0 0 32 32">
      <title>plus-icon</title>
      <path class="svg-color" fill="$main-white-color" style="fill: var(--color1, $main-white-color)" d="M16.001 0c-3.165 0-6.258 0.938-8.889 2.696s-4.682 4.257-5.893 7.181c-1.211 2.924-1.528 6.141-0.91 9.244s2.141 5.955 4.379 8.192c2.238 2.238 5.089 3.761 8.192 4.379s6.321 0.3 9.244-0.911c2.924-1.211 5.422-3.262 7.18-5.893s2.697-5.725 2.697-8.889c0-2.101-0.414-4.182-1.218-6.123s-1.983-3.705-3.468-5.191-3.25-2.664-5.191-3.468c-1.941-0.804-4.022-1.218-6.123-1.218zM16.001 28.8c-2.532 0-5.006-0.751-7.111-2.157s-3.746-3.406-4.714-5.744-1.222-4.913-0.728-7.396c0.494-2.483 1.713-4.764 3.503-6.554s4.071-3.009 6.554-3.503c2.483-0.494 5.057-0.24 7.395 0.728s4.338 2.609 5.744 4.714c1.407 2.105 2.157 4.58 2.157 7.111 0 3.395-1.349 6.651-3.749 9.051s-5.656 3.749-9.051 3.749zM22.401 14.4h-4.8v-4.8c0-0.424-0.169-0.831-0.469-1.131s-0.707-0.469-1.131-0.469c-0.424 0-0.831 0.169-1.131 0.469s-0.469 0.707-0.469 1.131v4.8h-4.8c-0.424 0-0.831 0.169-1.131 0.469s-0.469 0.707-0.469 1.131c0 0.424 0.169 0.831 0.469 1.131s0.707 0.469 1.131 0.469h4.8v4.8c0 0.424 0.169 0.831 0.469 1.131s0.707 0.469 1.131 0.469c0.424 0 0.831-0.169 1.131-0.469s0.469-0.707 0.469-1.131v-4.8h4.8c0.424 0 0.831-0.169 1.131-0.469s0.469-0.707 0.469-1.131c0-0.424-0.169-0.831-0.469-1.131s-0.707-0.469-1.131-0.469z"></path>
    </symbol>
    <symbol id="target-icon" viewBox="0 0 37 32">
      <title>target-icon</title>
      <path class="svg-color" fill="$main-white-color" style="fill: var(--color3, $main-white-color)" d="M32.77 5.554l3.601 2.115c0.262 0.154 0.425 0.43 0.43 0.73s-0.149 0.581-0.406 0.743l-3.474 2.187c-0.144 0.091-0.31 0.137-0.476 0.137-0.119 0-0.238-0.024-0.35-0.071l-4.021-1.708-10.353 6.533c0.034 0.16 0.052 0.326 0.052 0.496 0 1.326-1.096 2.404-2.442 2.404-1.35 0-2.449-1.078-2.449-2.404s1.098-2.404 2.449-2.404c0.532 0 1.025 0.169 1.427 0.455l10.295-6.498 0.062-4.502c0.004-0.291 0.156-0.56 0.405-0.717l3.466-2.191c0.258-0.163 0.583-0.183 0.859-0.053s0.464 0.392 0.496 0.691l0.431 4.057zM28.818 8.115l3.545 1.506 1.879-1.183-2.757-1.62c-0.239-0.14-0.396-0.382-0.425-0.654l-0.328-3.087-1.861 1.177-0.053 3.86zM14.721 30.16c7.113 0 12.88-5.767 12.88-12.88 0-0.906-0.094-1.791-0.272-2.645-0.084-0.4 0.076-0.817 0.42-1.037 0.523-0.334 1.221-0.078 1.353 0.528 0.222 1.016 0.338 2.071 0.338 3.153 0 8.13-6.59 14.72-14.72 14.72s-14.72-6.59-14.72-14.72 6.59-14.72 14.72-14.72c3.451 0 6.625 1.188 9.135 3.177 0.48 0.38 0.413 1.108-0.103 1.438-0.35 0.224-0.804 0.188-1.132-0.068-2.181-1.697-4.923-2.707-7.901-2.707-7.113 0-12.88 5.767-12.88 12.88s5.767 12.88 12.88 12.88zM18.581 8.926c0.637 0.295 0.632 1.151 0.040 1.53-0.296 0.189-0.668 0.2-0.991 0.061-0.892-0.384-1.876-0.597-2.909-0.597-4.065 0-7.36 3.295-7.36 7.36s3.295 7.36 7.36 7.36c4.065 0 7.36-3.295 7.36-7.36 0-0.036 0.018-0.069 0.048-0.088l0.714-0.457c0.466-0.298 1.077-0.007 1.077 0.545 0 5.081-4.119 9.2-9.2 9.2s-9.2-4.119-9.2-9.2c0-5.081 4.119-9.2 9.2-9.2 1.378 0 2.686 0.303 3.86 0.846z"></path>
    </symbol>
    <symbol id="wheel-icon" viewBox="0 0 32 32">
      <title>wheel-icon</title>
      <path class="svg-color" fill="$main-white-color" style="fill: var(--color1, $main-white-color)" d="M32.001 14.48v-0.528l-0.144-0.96-0.144-0.624c0-0.272-0.128-0.544-0.208-0.816s-0.128-0.432-0.208-0.64c-0.045-0.126-0.082-0.254-0.112-0.384v-0.080c-0.81-2.155-2.072-4.112-3.7-5.74s-3.585-2.889-5.74-3.7h-0.080l-0.368-0.112-0.672-0.208c-0.24 0-0.496-0.128-0.736-0.192l-0.736-0.16-0.736-0.112c-0.256 0-0.496 0-0.768-0.096s-0.56 0-0.832 0l-0.816-0.128h-1.456c-0.272 0-0.512 0-0.768 0.096l-0.736 0.112-0.736 0.16c-0.24 0-0.496 0.112-0.736 0.192l-0.672 0.208-0.368 0.112h-0.080c-2.155 0.81-4.112 2.072-5.74 3.7s-2.889 3.585-3.7 5.74v0.080c-0.030 0.13-0.067 0.258-0.112 0.384 0 0.208-0.144 0.416-0.208 0.64s-0.144 0.544-0.208 0.816l-0.144 0.624-0.144 0.96v4.096l0.144 0.96 0.144 0.624c0 0.272 0.128 0.544 0.208 0.816s0.128 0.432 0.208 0.64c0.045 0.126 0.082 0.254 0.112 0.384 0.003 0.037 0.003 0.075 0 0.112 0.803 2.153 2.061 4.108 3.687 5.731s3.583 2.877 5.737 3.677h0.080l0.384 0.112 0.64 0.208 0.816 0.208 0.624 0.144 0.96 0.144h0.528c0.496 0 1.008 0.080 1.52 0.080s1.024 0 1.52-0.080h0.528l0.96-0.144 0.624-0.144 0.816-0.208 0.64-0.208 0.384-0.112h0.080c2.154-0.8 4.111-2.054 5.737-3.677s2.884-3.578 3.687-5.731c-0.003-0.037-0.003-0.075 0-0.112 0-0.128 0.080-0.256 0.112-0.384s0.144-0.416 0.208-0.64c0.064-0.224 0.144-0.544 0.208-0.816l0.144-0.624 0.144-0.96v-0.528c0-0.496 0.080-1.008 0.080-1.52s0.144-0.896 0.144-1.392zM21.921 4.624c2.378 1.222 4.314 3.158 5.536 5.536l-4.576 1.6c-0.663-1.063-1.561-1.961-2.624-2.624l1.664-4.512zM13.345 3.504c0.336-0.080 0.656-0.128 0.976-0.176h0.384c0.915-0.096 1.837-0.096 2.752 0h0.384c0.32 0 0.64 0.096 0.976 0.176h0.096l-1.6 4.576c-0.434-0.067-0.873-0.093-1.312-0.080-0.391-0-0.782 0.032-1.168 0.096l-1.6-4.576 0.112-0.016zM10.241 4.624l1.6 4.576c-1.069 0.661-1.972 1.559-2.64 2.624l-4.576-1.6c1.211-2.402 3.148-4.361 5.536-5.6h0.080zM3.505 18.736c-0.077-0.316-0.13-0.636-0.16-0.96v-0.4c-0.107-0.914-0.107-1.838 0-2.752v-0.4c0.030-0.323 0.083-0.644 0.16-0.96v-0.096l4.576 1.6c-0.128 0.773-0.128 1.563 0 2.336l-4.576 1.6v0.032zM10.161 27.376c-2.378-1.222-4.314-3.158-5.536-5.536l4.576-1.6c0.663 1.063 1.561 1.961 2.624 2.624l-1.664 4.512zM18.737 28.496c-0.336 0.080-0.656 0.128-0.976 0.176h-0.384c-0.915 0.096-1.837 0.096-2.752 0h-0.384c-0.32 0-0.64-0.096-0.976-0.176h-0.096l1.6-4.576c0.773 0.128 1.563 0.128 2.336 0l1.6 4.576h0.032zM17.665 20.496c-0.272 0.096-0.544 0.16-0.8 0.224-0.529 0.099-1.071 0.099-1.6 0-0.256 0-0.528-0.128-0.8-0.224-0.675-0.233-1.29-0.614-1.799-1.115s-0.9-1.109-1.145-1.781c-0.097-0.265-0.172-0.538-0.224-0.816-0.102-0.528-0.102-1.072 0-1.6 0.049-0.266 0.118-0.528 0.208-0.784 0.241-0.663 0.626-1.266 1.126-1.763s1.105-0.879 1.77-1.117c0.272-0.096 0.544-0.16 0.8-0.224 0.529-0.098 1.071-0.098 1.6 0 0.256 0 0.528 0.128 0.8 0.224 0.662 0.24 1.263 0.622 1.761 1.119s0.88 1.099 1.119 1.761c0.097 0.265 0.172 0.538 0.224 0.816 0.102 0.528 0.102 1.072 0 1.6-0.052 0.278-0.127 0.551-0.224 0.816-0.243 0.656-0.627 1.251-1.125 1.743s-1.096 0.869-1.755 1.105l0.064 0.016zM21.841 27.392l-1.6-4.576c1.063-0.663 1.961-1.561 2.624-2.624l4.576 1.6c-1.23 2.406-3.191 4.36-5.6 5.584v0.016zM28.801 17.376v0.4c-0.030 0.324-0.083 0.644-0.16 0.96v0.096l-4.576-1.6c0.128-0.773 0.128-1.563 0-2.336l4.576-1.6v0.096c0.077 0.316 0.13 0.637 0.16 0.96v0.4c0.107 0.914 0.107 1.838 0 2.752v-0.128z"></path>
    </symbol>
  </defs>
</svg>
