<svg viewBox="0 0 23 20" xmlns="http://www.w3.org/2000/svg">
<path d="M20.4814 3.47102L22.732 4.79318C22.8959 4.88945 22.9974 5.06215 23.0005 5.24965C23.0034 5.4372 22.9074 5.61294 22.7466 5.71413L20.5752 7.08121C20.4851 7.13798 20.3817 7.16686 20.2777 7.16686C20.2034 7.16686 20.1289 7.15217 20.0588 7.12238L17.5455 6.05456L11.0747 10.1377C11.0961 10.2377 11.1075 10.3413 11.1075 10.4475C11.1075 11.276 10.4227 11.95 9.581 11.95C8.73714 11.95 8.05055 11.276 8.05055 10.4475C8.05055 9.61903 8.73709 8.945 9.581 8.945C9.91374 8.945 10.2217 9.05064 10.4728 9.22919L16.907 5.16785L16.9458 2.35385C16.9483 2.17226 17.0433 2.00394 17.1988 1.90567L19.365 0.536159C19.526 0.434366 19.7294 0.42196 19.902 0.503329C20.0746 0.584752 20.192 0.748303 20.2118 0.935473L20.4814 3.47102ZM18.0113 5.07207L20.2272 6.0135L21.4017 5.27403L19.6786 4.26179C19.5295 4.17425 19.4312 4.02278 19.4131 3.85311L19.208 1.92387L18.0446 2.65944L18.0113 5.07207ZM9.20055 18.85C13.6464 18.85 17.2505 15.2459 17.2505 10.8C17.2505 10.2335 17.192 9.68065 17.0807 9.14719C17.0285 8.8972 17.128 8.63675 17.3431 8.49919C17.67 8.29023 18.1063 8.45046 18.189 8.82948C18.3276 9.46431 18.4005 10.1236 18.4005 10.8C18.4005 15.881 14.2816 20 9.20055 20C4.11953 20 0.000549316 15.881 0.000549316 10.8C0.000549316 5.71899 4.11953 1.60001 9.20055 1.60001C11.3577 1.60001 13.3414 2.34241 14.9101 3.58563C15.2099 3.82317 15.1682 4.27825 14.846 4.48425C14.6272 4.62416 14.3437 4.6015 14.1386 4.44203C12.7752 3.38156 11.0616 2.75001 9.20055 2.75001C4.75466 2.75001 1.15055 6.35412 1.15055 10.8C1.15055 15.2459 4.75466 18.85 9.20055 18.85ZM11.613 5.57904C12.0113 5.7634 12.008 6.29865 11.6381 6.53507C11.4532 6.65328 11.2204 6.66017 11.0188 6.57335C10.4611 6.3331 9.84637 6.20001 9.20055 6.20001C6.66004 6.20001 4.60055 8.2595 4.60055 10.8C4.60055 13.3405 6.66004 15.4 9.20055 15.4C11.7411 15.4 13.8005 13.3405 13.8005 10.8C13.8005 10.7776 13.8118 10.7568 13.8307 10.7447L14.2772 10.4592C14.5683 10.2732 14.9505 10.4546 14.9505 10.8C14.9505 13.9756 12.3762 16.55 9.20055 16.55C6.02491 16.55 3.45055 13.9756 3.45055 10.8C3.45055 7.62437 6.02491 5.05001 9.20055 5.05001C10.0621 5.05001 10.8794 5.23949 11.613 5.57904Z" fill="red"/>
</svg>
