<svg width="20" height="10" viewBox="0 0 20 10" fill="none" xmlns="http://www.w3.org/2000/svg">
<path d="M19.92 4.62005C19.8724 4.4973 19.8011 4.38515 19.71 4.29005L17.21 1.79005C17.0217 1.60174 16.7663 1.49596 16.5 1.49596C16.2337 1.49596 15.9783 1.60174 15.79 1.79005C15.6017 1.97835 15.4959 2.23375 15.4959 2.50005C15.4959 2.76635 15.6017 3.02174 15.79 3.21005L16.59 4.00005H11V1.00005C11 0.734831 10.8947 0.480477 10.7071 0.292941C10.5196 0.105405 10.2652 4.76837e-05 10 4.76837e-05C9.7348 4.76837e-05 9.48045 0.105405 9.29291 0.292941C9.10538 0.480477 9.00002 0.734831 9.00002 1.00005V4.00005H3.41002L4.21002 3.21005C4.39832 3.02174 4.50411 2.76635 4.50411 2.50005C4.50411 2.23375 4.39832 1.97835 4.21002 1.79005C4.02172 1.60174 3.76632 1.49596 3.50002 1.49596C3.23372 1.49596 2.97832 1.60174 2.79002 1.79005L0.290018 4.29005C0.198978 4.38515 0.127613 4.4973 0.0800184 4.62005C-0.0199996 4.86351 -0.0199996 5.13659 0.0800184 5.38005C0.127613 5.5028 0.198978 5.61494 0.290018 5.71005L2.79002 8.21005C2.88298 8.30378 2.99358 8.37817 3.11544 8.42894C3.2373 8.47971 3.36801 8.50585 3.50002 8.50585C3.63203 8.50585 3.76274 8.47971 3.8846 8.42894C4.00645 8.37817 4.11706 8.30378 4.21002 8.21005C4.30375 8.11708 4.37814 8.00648 4.42891 7.88462C4.47968 7.76277 4.50582 7.63206 4.50582 7.50005C4.50582 7.36804 4.47968 7.23733 4.42891 7.11547C4.37814 6.99361 4.30375 6.88301 4.21002 6.79005L3.41002 6.00005H9.00002V9.00005C9.00002 9.26526 9.10538 9.51962 9.29291 9.70716C9.48045 9.89469 9.7348 10 10 10C10.2652 10 10.5196 9.89469 10.7071 9.70716C10.8947 9.51962 11 9.26526 11 9.00005V6.00005H16.59L15.79 6.79005C15.6963 6.88301 15.6219 6.99361 15.5711 7.11547C15.5204 7.23733 15.4942 7.36804 15.4942 7.50005C15.4942 7.63206 15.5204 7.76277 15.5711 7.88462C15.6219 8.00648 15.6963 8.11708 15.79 8.21005C15.883 8.30378 15.9936 8.37817 16.1154 8.42894C16.2373 8.47971 16.368 8.50585 16.5 8.50585C16.632 8.50585 16.7627 8.47971 16.8846 8.42894C17.0065 8.37817 17.1171 8.30378 17.21 8.21005L19.71 5.71005C19.8011 5.61494 19.8724 5.5028 19.92 5.38005C20.02 5.13659 20.02 4.86351 19.92 4.62005Z" fill="#18253A" fill-opacity="0.6"/>
</svg>
