<svg width="20" height="20" viewBox="0 0 20 20" fill="none" xmlns="http://www.w3.org/2000/svg">
<path d="M20.0005 9.05V8.72L19.9105 8.12L19.8205 7.73C19.8205 7.56 19.7405 7.39 19.6905 7.22C19.6405 7.05 19.6105 6.95 19.5605 6.82C19.5326 6.74141 19.5092 6.66128 19.4905 6.58V6.53C18.9842 5.18302 18.1958 3.9598 17.1783 2.94226C16.1608 1.92472 14.9375 1.13637 13.5905 0.63H13.5405L13.3105 0.56L12.8905 0.43C12.7405 0.43 12.5805 0.35 12.4305 0.31L11.9705 0.21L11.5105 0.14C11.3505 0.14 11.2005 0.14 11.0305 0.0799999C10.8605 0.0199999 10.6805 0.0799999 10.5105 0.0799999L10.0005 0H9.09054C8.92054 0 8.77054 -5.58794e-08 8.61054 0.0599999L8.15054 0.13L7.69054 0.23C7.54054 0.23 7.38054 0.3 7.23054 0.35L6.81054 0.48L6.58054 0.55H6.53054C5.18356 1.05637 3.96034 1.84472 2.9428 2.86226C1.92527 3.8798 1.13691 5.10302 0.630545 6.45V6.5C0.611843 6.58128 0.588471 6.66141 0.560544 6.74C0.560544 6.87 0.470545 7 0.430545 7.14C0.390545 7.28 0.340544 7.48 0.300545 7.65L0.210545 8.04L0.120544 8.64V11.2L0.210545 11.8L0.300545 12.19C0.300545 12.36 0.380545 12.53 0.430545 12.7C0.480545 12.87 0.510544 12.97 0.560544 13.1C0.588471 13.1786 0.611843 13.2587 0.630545 13.34C0.632447 13.3633 0.632447 13.3867 0.630545 13.41C1.13251 14.7556 1.9184 15.9772 2.93477 16.9919C3.95114 18.0065 5.17413 18.7903 6.52055 19.29H6.57054L6.81054 19.36L7.21054 19.49L7.72054 19.62L8.11054 19.71L8.71054 19.8H9.04054C9.35054 19.8 9.67054 19.85 9.99054 19.85C10.3105 19.85 10.6305 19.85 10.9405 19.8H11.2705L11.8705 19.71L12.2605 19.62L12.7705 19.49L13.1705 19.36L13.4105 19.29H13.4605C14.807 18.7903 16.03 18.0065 17.0463 16.9919C18.0627 15.9772 18.8486 14.7556 19.3505 13.41C19.3486 13.3867 19.3486 13.3633 19.3505 13.34C19.3505 13.26 19.4005 13.18 19.4205 13.1C19.4405 13.02 19.5105 12.84 19.5505 12.7C19.5905 12.56 19.6405 12.36 19.6805 12.19L19.7705 11.8L19.8605 11.2V10.87C19.8605 10.56 19.9105 10.24 19.9105 9.92C19.9105 9.6 20.0005 9.36 20.0005 9.05ZM13.7005 2.89C15.1869 3.65365 16.3969 4.8636 17.1605 6.35L14.3005 7.35C13.886 6.68553 13.325 6.12458 12.6605 5.71L13.7005 2.89ZM8.34054 2.19C8.55054 2.14 8.75054 2.11 8.95054 2.08H9.19054C9.76231 2.02 10.3388 2.02 10.9105 2.08H11.1505C11.3505 2.08 11.5505 2.14 11.7605 2.19H11.8205L10.8205 5.05C10.5493 5.00831 10.2748 4.99157 10.0005 5C9.75597 4.99968 9.51179 5.01975 9.27055 5.06L8.27055 2.2L8.34054 2.19ZM6.40054 2.89L7.40054 5.75C6.73243 6.16338 6.16798 6.72442 5.75054 7.39L2.89054 6.39C3.64745 4.88874 4.85809 3.66411 6.35054 2.89H6.40054ZM2.19054 11.71C2.14265 11.5127 2.10923 11.3122 2.09054 11.11V10.86C2.02387 10.2886 2.02387 9.7114 2.09054 9.14V8.89C2.10923 8.68783 2.14265 8.4873 2.19054 8.29V8.23L5.05054 9.23C4.97053 9.71338 4.97053 10.2066 5.05054 10.69L2.19054 11.69V11.71ZM6.35054 17.11C4.86415 16.3463 3.6542 15.1364 2.89054 13.65L5.75054 12.65C6.16513 13.3145 6.72607 13.8754 7.39054 14.29L6.35054 17.11ZM11.7105 17.81C11.5005 17.86 11.3005 17.89 11.1005 17.92H10.8605C10.2888 17.98 9.71231 17.98 9.14054 17.92H8.90054C8.70054 17.92 8.50054 17.86 8.29054 17.81H8.23054L9.23054 14.95C9.71392 15.03 10.2072 15.03 10.6905 14.95L11.6905 17.81H11.7105ZM11.0405 12.81C10.8705 12.87 10.7005 12.91 10.5405 12.95C10.2101 13.0116 9.87103 13.0116 9.54054 12.95C9.38054 12.95 9.21054 12.87 9.04054 12.81C8.61848 12.6643 8.23427 12.4261 7.91594 12.113C7.59762 11.7999 7.35321 11.4196 7.20054 11C7.14002 10.8341 7.09319 10.6635 7.06054 10.49C6.99659 10.1597 6.99659 9.82027 7.06054 9.49C7.09097 9.32351 7.13444 9.15968 7.19054 9C7.34131 8.58533 7.58169 8.20901 7.89455 7.89788C8.20741 7.58675 8.58504 7.34846 9.00054 7.2C9.17054 7.14 9.34054 7.1 9.50054 7.06C9.83103 6.99843 10.1701 6.99843 10.5005 7.06C10.6605 7.06 10.8305 7.14 11.0005 7.2C11.4142 7.34971 11.7899 7.58855 12.1009 7.89962C12.412 8.21068 12.6508 8.58635 12.8005 9C12.8611 9.16589 12.9079 9.33646 12.9405 9.51C13.0045 9.84027 13.0045 10.1797 12.9405 10.51C12.9079 10.6835 12.8611 10.8541 12.8005 11.02C12.6484 11.43 12.4084 11.8017 12.0975 12.1092C11.7866 12.4166 11.4122 12.6524 11.0005 12.8L11.0405 12.81ZM13.6505 17.12L12.6505 14.26C13.315 13.8454 13.876 13.2845 14.2905 12.62L17.1505 13.62C16.3815 15.1236 15.1563 16.3453 13.6505 17.11V17.12ZM18.0005 10.86V11.11C17.9819 11.3122 17.9484 11.5127 17.9005 11.71V11.77L15.0405 10.77C15.1206 10.2866 15.1206 9.79338 15.0405 9.31L17.9005 8.31V8.37C17.9484 8.5673 17.9819 8.76783 18.0005 8.97V9.22C18.0672 9.7914 18.0672 10.3686 18.0005 10.94V10.86Z" fill="white"/>
</svg>
